<?xml version="1.0" encoding="utf-8"?>
<!-- Generator: Adobe Illustrator 21.0.2, SVG Export Plug-In . SVG Version: 6.00 Build 0)  -->
<svg version="1.1" id="Layer_1" xmlns="http://www.w3.org/2000/svg" xmlns:xlink="http://www.w3.org/1999/xlink" x="0px" y="0px"
	 viewBox="0 0 430 306" style="enable-background:new 0 0 430 306;" xml:space="preserve">
<style type="text/css">
	.st0{opacity:0.36;}
	.st1{fill:#CFDEF0;}
	.st2{fill:#FFFFFF;stroke:#565C6F;stroke-width:0.75;stroke-miterlimit:10;}
	.st3{opacity:0.29;fill:#F9DEAC;}
	.st4{fill:#565C6F;}
	.st5{fill:#F9DEAC;}
	.st6{opacity:0.36;fill:#F9DEAC;}
	.st7{fill:none;stroke:#CFDEF0;stroke-miterlimit:10;}
	.st8{fill:none;stroke:#F9DEAC;stroke-miterlimit:10;}
	.st9{fill:#FFFFFF;stroke:#565C6F;stroke-width:1.5;stroke-miterlimit:10;}
	.st10{fill:none;stroke:#565C6F;stroke-width:2;stroke-miterlimit:10;}
	.st11{fill:#FFFFFF;stroke:#565C6F;stroke-width:2;stroke-miterlimit:10;}
</style>
<g class="st0">
	<path class="st1" d="M245.6,27.7c-43.5,10.3-86,26.1-123,51.2s-68.1,59.9-84.3,101.5c-6.9,17.7-11.1,37.3-6.6,55.8
		c4.8,19.9,19.4,36.5,36.9,47s37.9,15.6,58.2,18.3c38.9,5.1,78.8,2,116.4-9.1c19.6-5.8,38.7-13.8,55.6-25.4
		c27-18.6,47.1-45.6,64.7-73.4c17.3-27.3,33-56.7,36.8-88.8c3.8-32.1-6.4-67.5-32.4-86.6C344.2,1,311.7-0.1,283.7,8.4
		S231.1,33.7,207,50.3c-19.7,13.6-39.5,27.1-59.2,40.7"/>
</g>
<g>
	<path class="st2" d="M118.3,266.3H46.5c-3,0-5.5-2.5-5.5-5.5V153.4c0-3,2.5-5.5,5.5-5.5h71.8c3,0,5.5,2.5,5.5,5.5v107.5
		C123.8,263.8,121.4,266.3,118.3,266.3z"/>
	<path class="st3" d="M84.9,166c-7.6,0-13.5,3-13.5,6.9v8.9c0,3.8,5.9,6.9,13.5,6.9c1.7,0,3.5-0.2,5.1-0.5c0.4-0.1,0.7-0.4,0.7-0.9
		v-4.6h6.9c0.5,0,0.9-0.4,0.9-0.9c0,0,0,0,0-0.1c0,0,0,0,0-0.1v-8.7c0,0,0,0,0-0.1s0-0.1,0-0.1C98.3,168.9,92.4,166,84.9,166z
		 M90.4,177.8"/>
	<g>
		<path class="st4" d="M76.7,194.7l-0.4,0.4c-0.3-0.3-0.6-0.5-1-0.5c-0.7,0-1.3,0.6-1.3,1.3c0,0.7,0.6,1.3,1.3,1.3
			c0.4,0,0.7-0.2,1-0.4l0.4,0.4c-0.4,0.4-0.9,0.6-1.4,0.6c-1,0-1.9-0.8-1.9-1.8c0-1,0.8-1.8,1.9-1.8
			C75.8,194.1,76.3,194.4,76.7,194.7z"/>
		<path class="st4" d="M79.9,196.1v1.7h-0.6v-1.5c0-0.4-0.2-0.7-0.7-0.7c-0.5,0-0.8,0.4-0.8,0.8v1.3h-0.6v-3.8h0.6v1.6
			c0.2-0.4,0.5-0.6,1-0.6C79.5,195,79.9,195.4,79.9,196.1z"/>
		<path class="st4" d="M83.1,196.6H81c0.1,0.4,0.4,0.7,0.8,0.7c0.3,0,0.6-0.1,0.8-0.3l0.3,0.3c-0.3,0.3-0.7,0.5-1.1,0.5
			c-0.8,0-1.4-0.6-1.4-1.4c0-0.8,0.6-1.4,1.4-1.4C82.8,195,83.1,195.6,83.1,196.6z M82.6,196.2c0-0.4-0.3-0.7-0.8-0.7
			c-0.4,0-0.7,0.3-0.8,0.7H82.6z"/>
		<path class="st4" d="M86.1,196.6H84c0.1,0.4,0.4,0.7,0.8,0.7c0.3,0,0.6-0.1,0.8-0.3l0.3,0.3c-0.3,0.3-0.7,0.5-1.1,0.5
			c-0.8,0-1.4-0.6-1.4-1.4c0-0.8,0.6-1.4,1.4-1.4C85.8,195,86.2,195.6,86.1,196.6z M85.6,196.2c0-0.4-0.3-0.7-0.8-0.7
			c-0.4,0-0.7,0.3-0.8,0.7H85.6z"/>
		<path class="st4" d="M88.5,195.3l-0.2,0.4c-0.2-0.1-0.5-0.2-0.8-0.2c-0.2,0-0.4,0.1-0.4,0.3c0,0.5,1.4,0.2,1.4,1.2
			c0,0.6-0.5,0.8-1,0.8c-0.4,0-0.8-0.1-1.1-0.4l0.2-0.4c0.2,0.2,0.6,0.3,0.9,0.3c0.3,0,0.4-0.1,0.4-0.3c0-0.6-1.4-0.2-1.4-1.2
			c0-0.6,0.5-0.8,1-0.8C87.9,195,88.2,195.1,88.5,195.3z"/>
		<path class="st4" d="M91.5,196.6h-2.1c0.1,0.4,0.4,0.7,0.8,0.7c0.3,0,0.6-0.1,0.8-0.3l0.3,0.3c-0.3,0.3-0.7,0.5-1.1,0.5
			c-0.8,0-1.4-0.6-1.4-1.4c0-0.8,0.6-1.4,1.4-1.4C91.2,195,91.6,195.6,91.5,196.6z M91,196.2c0-0.4-0.3-0.7-0.8-0.7
			c-0.4,0-0.7,0.3-0.8,0.7H91z"/>
	</g>
	<path class="st5" d="M79.2,200.8l-0.4,0.4c-0.3-0.3-0.6-0.5-1-0.5c-0.7,0-1.3,0.6-1.3,1.3c0,0.7,0.6,1.3,1.3,1.3
		c0.4,0,0.7-0.2,1-0.4l0.4,0.4c-0.4,0.4-0.9,0.6-1.4,0.6c-1,0-1.9-0.8-1.9-1.8c0-1,0.8-1.8,1.9-1.8
		C78.4,200.3,78.9,200.5,79.2,200.8z"/>
	<path class="st5" d="M82.3,203.9v-1.5h-1.9v1.5h-0.6v-3.6h0.6v1.6h1.9v-1.6h0.6v3.6H82.3z"/>
	<path class="st5" d="M86.2,202.8h-2.1c0.1,0.4,0.4,0.7,0.8,0.7c0.3,0,0.6-0.1,0.8-0.3l0.3,0.3c-0.3,0.3-0.7,0.5-1.1,0.5
		c-0.8,0-1.4-0.6-1.4-1.4c0-0.8,0.6-1.4,1.4-1.4C85.9,201.1,86.3,201.8,86.2,202.8z M85.7,202.3c0-0.4-0.3-0.7-0.8-0.7
		c-0.4,0-0.7,0.3-0.8,0.7H85.7z"/>
	<path class="st5" d="M87.3,203.4l1.6,0v0.5l-2.3,0v-0.4l1.6-1.8h-1.5v-0.5l2.2,0v0.4L87.3,203.4z"/>
	<g>
		<path class="st4" d="M80,235.2H62.9c0.8,3.5,3.4,5.7,7,5.7c2.5,0,4.7-0.9,6.4-2.6l2.6,2.8c-2.2,2.4-5.4,3.8-9.3,3.8
			c-7,0-11.6-4.6-11.6-11.4c0-6.8,4.7-11.5,11.4-11.5C77.4,221.8,80.6,227,80,235.2z M75.8,231.6c-0.2-3.7-2.6-5.9-6.3-5.9
			c-3.6,0-6.1,2.3-6.6,5.9H75.8z"/>
		<path class="st4" d="M105,235.2H87.9c0.8,3.5,3.4,5.7,7,5.7c2.5,0,4.7-0.9,6.4-2.6l2.6,2.8c-2.2,2.4-5.4,3.8-9.3,3.8
			c-7,0-11.6-4.6-11.6-11.4c0-6.8,4.7-11.5,11.4-11.5C102.4,221.8,105.6,227,105,235.2z M100.8,231.6c-0.2-3.7-2.6-5.9-6.3-5.9
			c-3.6,0-6.1,2.3-6.6,5.9H100.8z"/>
	</g>
	<path class="st4" d="M83.7,164.8c-7.6,0-13.5,3-13.5,6.9v8.9c0,3.8,5.9,6.9,13.5,6.9c1.7,0,3.5-0.2,5.1-0.5
		c0.4-0.1,0.7-0.4,0.7-0.9v-4.6h6.9c0.5,0,0.9-0.4,0.9-0.9c0,0,0,0,0-0.1c0,0,0,0,0-0.1v-8.7c0,0,0,0,0-0.1c0,0,0-0.1,0-0.1
		C97.1,167.7,91.2,164.8,83.7,164.8z M83.7,166.5c6.2,0,10.7,2.1,11.6,4.3H83.7c-0.3,0-0.6,0.2-0.8,0.5c-0.1,0.3-0.1,0.7,0.1,0.9
		l3.9,4.4c-1.1,0.1-2.1,0.2-3.2,0.2c-7,0-11.8-2.6-11.8-5.2C72,169.1,76.7,166.5,83.7,166.5z M87.8,185.3c-1.3,0.2-2.6,0.3-4.1,0.3
		c-7,0-11.8-2.6-11.8-5.2V175c2.3,2.1,6.7,3.5,11.8,3.5c1.4,0,2.8-0.1,4.1-0.3V185.3z M95.5,179.8h-6v-2.6c0-0.1,0-0.3-0.1-0.3
		c0,0,0,0,0,0c0,0,0-0.1-0.1-0.1c0,0,0,0,0,0l-3.7-4.1h9.9V179.8z"/>
	<ellipse class="st6" cx="209.1" cy="269.1" rx="196.7" ry="2.9"/>
	<g>
		<path class="st5" d="M407.4,232.2v1.9h-0.8v-1.9h-2v-0.9h2v-1.9h0.8v1.9h1.9v0.9H407.4z"/>
	</g>
	<circle class="st5" cx="402.4" cy="242.1" r="2.3"/>
	<circle class="st5" cx="231" cy="38.4" r="2.3"/>
	<g>
		<path class="st5" d="M212.3,49.8v2.3h-1v-2.3H209v-1h2.4v-2.3h1v2.3h2.3v1H212.3z"/>
	</g>
	<circle class="st7" cx="217" cy="32.6" r="3.5"/>
	<g>
		<path class="st5" d="M22.5,207.5v2.4h-1v-2.4h-2.4v-1.1h2.4v-2.4h1v2.4h2.4v1.1H22.5z"/>
	</g>
	<circle class="st5" cx="27.5" cy="221.6" r="3.2"/>
	<circle class="st8" cx="32.1" cy="198.7" r="2"/>
	<g>
		<path class="st5" d="M402.8,51.6v1.9h-0.8v-1.9h-2v-0.9h2v-1.9h0.8v1.9h1.9v0.9H402.8z"/>
	</g>
	<circle class="st7" cx="409.3" cy="46.5" r="2.3"/>
	<g>
		<path class="st1" d="M101.3,103.3v1.9h-0.8v-1.9h-2v-0.9h2v-1.9h0.8v1.9h1.9v0.9H101.3z"/>
	</g>
	<circle class="st5" cx="96.3" cy="113.2" r="2.3"/>
	<g>
		<path class="st9" d="M234.3,266.2H119.3c-5.8,0-10.5-4.7-10.5-10.5V82.3c0-5.8,4.7-10.5,10.5-10.5h114.9c5.8,0,10.5,4.7,10.5,10.5
			v173.4C244.8,261.5,240.1,266.2,234.3,266.2z"/>
		<g>
			<path class="st4" d="M173.6,212.1c0,11.1-7.9,18.8-19.3,18.8c-11.5,0-19.3-7.6-19.3-18.8c0-11.2,7.9-18.8,19.3-18.8
				C165.8,193.4,173.6,200.9,173.6,212.1z M143,212.2c0,7.2,4.7,12,11.3,12c6.6,0,11.3-4.9,11.3-12c0-7.1-4.7-12-11.3-12
				C147.7,200.2,143,205.1,143,212.2z"/>
			<path class="st4" d="M204.1,226.1c-2.6,3.3-6.9,4.9-12.2,4.9c-8,0-13-4.9-13-11.5c0-6.7,5.1-11.1,14-11.1h11.2v-1.1
				c0-4.7-3-7.4-8.8-7.4c-3.5,0-7.2,1.3-10.9,3.8l-3.3-5.6c5.1-3.1,8.9-4.7,15.9-4.7c9.5,0,14.9,4.9,14.9,13l0.1,24.3h-7.9V226.1z
				 M204.1,217.6v-3.4h-10c-5.2,0-7.6,1.4-7.6,4.9c0,3.3,2.7,5.5,7.2,5.5C199.3,224.6,203.7,221.6,204.1,217.6z"/>
		</g>
		<path class="st4" d="M168.4,147.1c1.2,0,2,0.6,2,1.5c0,0.7-0.4,1.2-1,1.3c0.8,0.1,1.3,0.7,1.3,1.5c0,1-0.8,1.6-2.1,1.6h-2.6v-5.9
			H168.4z M166.9,149.6h1.5c0.6,0,1-0.3,1-0.8c0-0.5-0.4-0.8-1-0.8h-1.5V149.6z M166.9,152.1h1.5c0.8,0,1.2-0.3,1.2-0.9
			c0-0.5-0.5-0.8-1.2-0.8h-1.5V152.1z"/>
		<path class="st4" d="M176,150.8c0,1.3-0.9,2.3-2.3,2.3c-1.4,0-2.3-0.9-2.3-2.3c0-1.4,0.9-2.3,2.3-2.3
			C175,148.5,176,149.4,176,150.8z M172.3,150.8c0,0.9,0.6,1.5,1.4,1.5c0.8,0,1.4-0.6,1.4-1.5c0-0.9-0.6-1.4-1.4-1.4
			C172.9,149.3,172.3,149.9,172.3,150.8z"/>
		<path class="st4" d="M179.7,152.5c-0.3,0.4-0.8,0.6-1.5,0.6c-1,0-1.6-0.6-1.6-1.4c0-0.8,0.6-1.3,1.7-1.3h1.4v-0.1
			c0-0.6-0.4-0.9-1.1-0.9c-0.4,0-0.9,0.2-1.3,0.5l-0.4-0.7c0.6-0.4,1.1-0.6,1.9-0.6c1.2,0,1.8,0.6,1.8,1.6l0,2.9h-0.9V152.5z
			 M179.7,151.4V151h-1.2c-0.6,0-0.9,0.2-0.9,0.6c0,0.4,0.3,0.7,0.9,0.7C179.1,152.3,179.6,151.9,179.7,151.4z"/>
		<path class="st4" d="M184.5,152.7c-0.4,0.2-0.7,0.3-1.1,0.3c-0.7,0-1.3-0.4-1.3-1.3v-2.3h-0.6v-0.7h0.6v-1.2h1v1.2h1.3v0.7h-1.3
			v2.1c0,0.5,0.2,0.6,0.5,0.6c0.2,0,0.4-0.1,0.7-0.2L184.5,152.7z"/>
		<path class="st5" d="M173.1,160.9c0,1.3-0.8,2.3-2.1,2.3c-0.7,0-1.3-0.3-1.6-0.8v0.8h-1v-6.2h1v2.5c0.3-0.5,0.9-0.8,1.6-0.8
			C172.2,158.6,173.1,159.5,173.1,160.9z M172.1,160.9c0-0.8-0.6-1.4-1.4-1.4s-1.4,0.6-1.4,1.4c0,0.9,0.6,1.5,1.4,1.5
			S172.1,161.7,172.1,160.9z"/>
		<path class="st5" d="M178.3,160.9c0,1.3-0.9,2.3-2.3,2.3c-1.4,0-2.3-0.9-2.3-2.3c0-1.4,0.9-2.3,2.3-2.3
			C177.4,158.6,178.3,159.5,178.3,160.9z M174.6,160.9c0,0.9,0.6,1.5,1.4,1.5c0.8,0,1.4-0.6,1.4-1.5c0-0.9-0.6-1.4-1.4-1.4
			C175.2,159.4,174.6,160,174.6,160.9z"/>
		<path class="st5" d="M181.9,162.8c-0.4,0.2-0.7,0.3-1.1,0.3c-0.7,0-1.3-0.4-1.3-1.3v-2.3h-0.6v-0.7h0.6v-1.2h1v1.2h1.3v0.7h-1.3
			v2.1c0,0.5,0.2,0.6,0.5,0.6c0.2,0,0.4-0.1,0.7-0.2L181.9,162.8z"/>
		<ellipse class="st6" cx="174.6" cy="139.7" rx="28.8" ry="1.2"/>
		<g>
			<polygon class="st4" points="196.6,139.1 153.1,139.1 146.1,127.5 203.6,127.5 			"/>
			<polygon class="st4" points="179,125.6 179.3,125.6 194.5,125.6 186.9,112.4 179.3,99.2 179,99.6 			"/>
			<polygon class="st4" points="176.7,125.6 176.4,125.6 155.5,125.6 166,107.6 176.4,89.5 176.7,90 			"/>
		</g>
	</g>
	<line class="st10" x1="2" y1="266.2" x2="413.9" y2="266.2"/>
	<path class="st11" d="M382.5,266.2H245.6c-6.6,0-12-5.4-12-12V48.1c0-6.6,5.4-12,12-12h136.9c6.6,0,12,5.4,12,12v206.1
		C394.5,260.9,389.1,266.2,382.5,266.2z"/>
	<path class="st4" d="M302.8,126.1c1.8,0,2.8,0.9,2.8,2.4c0,1.6-1,2.5-2.8,2.5h-1.6v2.1H300v-7H302.8z M301.2,129.9h1.6
		c1.1,0,1.7-0.5,1.7-1.4c0-0.9-0.6-1.4-1.7-1.4h-1.6V129.9z"/>
	<path class="st4" d="M311.8,129.8v3.3h-1.1v-3c0-0.8-0.5-1.3-1.3-1.3c-0.9,0-1.5,0.7-1.5,1.7v2.6h-1.1v-7.4h1.1v3.1
		c0.4-0.7,1.1-1.1,2-1.1C311.1,127.7,311.8,128.5,311.8,129.8z"/>
	<path class="st4" d="M318.4,130.4c0,1.6-1.1,2.7-2.8,2.7c-1.6,0-2.8-1.1-2.8-2.7c0-1.6,1.1-2.7,2.8-2.7
		C317.2,127.7,318.4,128.8,318.4,130.4z M314,130.4c0,1,0.7,1.7,1.6,1.7c0.9,0,1.6-0.7,1.6-1.7c0-1-0.7-1.7-1.6-1.7
		C314.6,128.7,314,129.4,314,130.4z"/>
	<path class="st4" d="M322.5,132.7c-0.4,0.2-0.9,0.4-1.3,0.4c-0.8,0-1.5-0.5-1.5-1.5v-2.7H319V128h0.7v-1.5h1.1v1.5h1.6v0.9h-1.6
		v2.5c0,0.5,0.2,0.7,0.6,0.7c0.2,0,0.5-0.1,0.8-0.2L322.5,132.7z"/>
	<path class="st4" d="M328.6,130.4c0,1.6-1.1,2.7-2.8,2.7c-1.6,0-2.8-1.1-2.8-2.7c0-1.6,1.1-2.7,2.8-2.7
		C327.4,127.7,328.6,128.8,328.6,130.4z M324.2,130.4c0,1,0.7,1.7,1.6,1.7c0.9,0,1.6-0.7,1.6-1.7c0-1-0.7-1.7-1.6-1.7
		C324.9,128.7,324.2,129.4,324.2,130.4z"/>
	<path class="st5" d="M306.4,139.3v0.6h1.4v0.9h-1.4v4.2h-1.1v-4.2h-0.7v-0.9h0.7v-0.5c0-1.2,0.9-1.8,1.8-1.8c0.4,0,0.9,0.1,1.2,0.4
		l-0.4,0.9c-0.2-0.2-0.5-0.2-0.7-0.2C306.7,138.6,306.4,138.8,306.4,139.3z"/>
	<path class="st5" d="M313.3,142.4c0,1.6-1.1,2.7-2.8,2.7c-1.6,0-2.8-1.1-2.8-2.7c0-1.6,1.1-2.7,2.8-2.7
		C312.2,139.7,313.3,140.8,313.3,142.4z M309,142.4c0,1,0.7,1.7,1.6,1.7c0.9,0,1.6-0.7,1.6-1.7c0-1-0.7-1.7-1.6-1.7
		C309.6,140.7,309,141.4,309,142.4z"/>
	<path class="st5" d="M317.5,144.7c-0.4,0.2-0.9,0.4-1.3,0.4c-0.8,0-1.5-0.5-1.5-1.5v-2.7H314v-0.9h0.7v-1.5h1.1v1.5h1.6v0.9h-1.6
		v2.5c0,0.5,0.2,0.7,0.6,0.7c0.2,0,0.5-0.1,0.8-0.2L317.5,144.7z"/>
	<path class="st5" d="M323.5,142.4c0,1.6-1.1,2.7-2.8,2.7c-1.6,0-2.8-1.1-2.8-2.7c0-1.6,1.1-2.7,2.8-2.7
		C322.4,139.7,323.5,140.8,323.5,142.4z M319.2,142.4c0,1,0.7,1.7,1.6,1.7c0.9,0,1.6-0.7,1.6-1.7c0-1-0.7-1.7-1.6-1.7
		C319.8,140.7,319.2,141.4,319.2,142.4z"/>
	<g>
		<path class="st4" d="M312.3,201.8c0,13.6-8.5,22.9-21.5,22.9c-7.3,0-12.7-2.9-16.1-8.2V241h-9.8v-62.1h9.8v7.9
			c3.3-5.3,8.8-8.2,15.9-8.2C303.5,178.5,312.3,187.9,312.3,201.8z M302.4,201.5c0-8.5-5.7-14.7-13.9-14.7
			c-8.1,0-13.8,6.2-13.8,14.7c0,8.8,5.7,14.9,13.8,14.9C296.6,216.3,302.4,210.2,302.4,201.5z"/>
		<path class="st4" d="M366.6,196.1v28.3h-9.8v-25.6c0-6.8-4.1-11-10.9-11c-8.1,0.1-13,6.2-13,14.2v22.4H323v-63.4h9.8v26.8
			c3.2-6.4,9.1-9.2,16.8-9.2C360.3,178.5,366.6,185.2,366.6,196.1z"/>
	</g>
	<g>
		<path class="st5" d="M279,59.4v56.1h72.8V59.4L279,59.4L279,59.4z"/>
	</g>
	<g>
		<path class="st4" d="M279,59.4v56.1h72.8V59.4L279,59.4L279,59.4z M347.6,63.5v24.4l-17.3-13.2l-19.1,18.8l-13.4-7.5l-14.6,11.6
			V63.5H347.6z"/>
		<circle class="st4" cx="293.9" cy="74.3" r="5.2"/>
	</g>
</g>
</svg>
