<?xml version="1.0" encoding="utf-8"?>
<!-- Generator: Adobe Illustrator 21.0.2, SVG Export Plug-In . SVG Version: 6.00 Build 0)  -->
<svg version="1.1" id="Layer_1" xmlns="http://www.w3.org/2000/svg" xmlns:xlink="http://www.w3.org/1999/xlink" x="0px" y="0px"
	 viewBox="0 0 430 306" style="enable-background:new 0 0 430 306;" xml:space="preserve">
<style type="text/css">
	.st0{opacity:0.36;}
	.st1{fill:#CFDEF0;}
	.st2{fill:#FFFFFF;stroke:#565C6F;stroke-width:0.75;stroke-miterlimit:10;}
	.st3{opacity:0.29;fill:#F9DEAC;}
	.st4{fill:#565C6F;}
	.st5{fill:#F9DEAC;}
	.st6{opacity:0.36;fill:#F9DEAC;}
	.st7{fill:none;stroke:#CFDEF0;stroke-miterlimit:10;}
	.st8{fill:none;stroke:#F9DEAC;stroke-miterlimit:10;}
	.st9{fill:#FFFFFF;stroke:#565C6F;stroke-width:1.5;stroke-miterlimit:10;}
	.st10{fill:none;stroke:#565C6F;stroke-width:2;stroke-miterlimit:10;}
	.st11{fill:#FFFFFF;stroke:#565C6F;stroke-width:2;stroke-miterlimit:10;}
	.st12{fill:#FFFFFF;stroke:#565C6F;stroke-width:3;stroke-miterlimit:10;}
	.st13{fill:none;stroke:#565C6F;stroke-miterlimit:10;}
	.st14{fill:#C1272D;}
	.st15{fill:none;stroke:#565C6F;stroke-width:3;stroke-miterlimit:10;}
	.st16{fill:none;stroke:#F9DEAC;stroke-width:2;stroke-miterlimit:10;}
	.st17{opacity:0.24;fill:#97AED6;}
	.st18{opacity:0.27;}
	.st19{fill:#ED1C24;}
	.st20{opacity:0.69;}
	.st21{fill:#FFFFFF;stroke:#565C6F;stroke-width:0.25;stroke-miterlimit:10;}
	.st22{fill:none;stroke:#565C6F;stroke-width:0.25;stroke-miterlimit:10;}
	.st23{opacity:0.19;fill:#39B54A;}
	.st24{opacity:0.37;fill:#97AED6;}
	.st25{fill:#565C6F;stroke:#565C6F;stroke-miterlimit:10;}
	.st26{fill:#97AED6;}
	.st27{fill:#7E9DCD;}
	.st28{fill:#FBFCFF;}
	.st29{fill:#F7931E;}
	.st30{font-family:'Montserrat-Regular';}
	.st31{font-size:13.1413px;}
	.st32{fill:#90DBE2;}
</style>
<g class="st0">
	<path class="st1" d="M673.1-230.8c-43.5,10.3-86,26.1-123,51.2c-36.9,25.1-68.1,59.9-84.3,101.5c-6.9,17.7-11.1,37.3-6.6,55.8
		c4.8,19.9,19.4,36.5,36.9,47c17.5,10.5,37.9,15.6,58.2,18.3c38.9,5.1,78.8,2,116.4-9.1c19.6-5.8,38.7-13.8,55.6-25.4
		c27-18.6,47.1-45.6,64.7-73.4c17.3-27.3,33-56.7,36.8-88.8c3.8-32.1-6.4-67.5-32.4-86.6c-23.6-17.3-56.1-18.3-84.1-9.9
		c-28,8.5-52.6,25.3-76.7,41.8c-19.7,13.6-39.5,27.1-59.2,40.7"/>
</g>
<g>
	<path class="st2" d="M-317.7,77.3h-71.8c-3,0-5.5-2.5-5.5-5.5V-35.6c0-3,2.5-5.5,5.5-5.5h71.8c3,0,5.5,2.5,5.5,5.5V71.8
		C-312.2,74.8-314.6,77.3-317.7,77.3z"/>
	<path class="st3" d="M-351.1-23c-7.6,0-13.5,3-13.5,6.9v8.9c0,3.8,5.9,6.9,13.5,6.9c1.7,0,3.5-0.2,5.1-0.5c0.4-0.1,0.7-0.4,0.7-0.9
		v-4.6h6.9c0.5,0,0.9-0.4,0.9-0.9c0,0,0,0,0-0.1c0,0,0,0,0-0.1v-8.7c0,0,0,0,0-0.1c0,0,0-0.1,0-0.1C-337.7-20.1-343.6-23-351.1-23z
		 M-345.6-11.2"/>
	<g>
		<path class="st4" d="M-359.3,5.7l-0.4,0.4c-0.3-0.3-0.6-0.5-1-0.5c-0.7,0-1.3,0.6-1.3,1.3s0.6,1.3,1.3,1.3c0.4,0,0.7-0.2,1-0.4
			l0.4,0.4c-0.4,0.4-0.9,0.6-1.4,0.6c-1,0-1.9-0.8-1.9-1.8c0-1,0.8-1.8,1.9-1.8C-360.2,5.1-359.7,5.4-359.3,5.7z"/>
		<path class="st4" d="M-356.1,7.1v1.7h-0.6V7.2c0-0.4-0.2-0.7-0.7-0.7c-0.5,0-0.8,0.4-0.8,0.8v1.3h-0.6V4.9h0.6v1.6
			c0.2-0.4,0.5-0.6,1-0.6C-356.5,6-356.1,6.4-356.1,7.1z"/>
		<path class="st4" d="M-352.9,7.6h-2.1c0.1,0.4,0.4,0.7,0.8,0.7c0.3,0,0.6-0.1,0.8-0.3l0.3,0.3c-0.3,0.3-0.7,0.5-1.1,0.5
			c-0.8,0-1.4-0.6-1.4-1.4c0-0.8,0.6-1.4,1.4-1.4C-353.2,6-352.9,6.6-352.9,7.6z M-353.4,7.2c0-0.4-0.3-0.7-0.8-0.7
			c-0.4,0-0.7,0.3-0.8,0.7H-353.4z"/>
		<path class="st4" d="M-349.9,7.6h-2.1c0.1,0.4,0.4,0.7,0.8,0.7c0.3,0,0.6-0.1,0.8-0.3l0.3,0.3c-0.3,0.3-0.7,0.5-1.1,0.5
			c-0.8,0-1.4-0.6-1.4-1.4c0-0.8,0.6-1.4,1.4-1.4C-350.2,6-349.8,6.6-349.9,7.6z M-350.4,7.2c0-0.4-0.3-0.7-0.8-0.7
			c-0.4,0-0.7,0.3-0.8,0.7H-350.4z"/>
		<path class="st4" d="M-347.5,6.3l-0.2,0.4c-0.2-0.1-0.5-0.2-0.8-0.2c-0.2,0-0.4,0.1-0.4,0.3c0,0.5,1.4,0.2,1.4,1.2
			c0,0.6-0.5,0.8-1,0.8c-0.4,0-0.8-0.1-1.1-0.4l0.2-0.4c0.2,0.2,0.6,0.3,0.9,0.3c0.3,0,0.4-0.1,0.4-0.3c0-0.6-1.4-0.2-1.4-1.2
			c0-0.6,0.5-0.8,1-0.8C-348.1,6-347.8,6.1-347.5,6.3z"/>
		<path class="st4" d="M-344.5,7.6h-2.1c0.1,0.4,0.4,0.7,0.8,0.7c0.3,0,0.6-0.1,0.8-0.3l0.3,0.3c-0.3,0.3-0.7,0.5-1.1,0.5
			c-0.8,0-1.4-0.6-1.4-1.4c0-0.8,0.6-1.4,1.4-1.4C-344.8,6-344.4,6.6-344.5,7.6z M-345,7.2c0-0.4-0.3-0.7-0.8-0.7
			c-0.4,0-0.7,0.3-0.8,0.7H-345z"/>
	</g>
	<path class="st5" d="M-356.8,11.8l-0.4,0.4c-0.3-0.3-0.6-0.5-1-0.5c-0.7,0-1.3,0.6-1.3,1.3s0.6,1.3,1.3,1.3c0.4,0,0.7-0.2,1-0.4
		l0.4,0.4c-0.4,0.4-0.9,0.6-1.4,0.6c-1,0-1.9-0.8-1.9-1.8c0-1,0.8-1.8,1.9-1.8C-357.6,11.3-357.1,11.5-356.8,11.8z"/>
	<path class="st5" d="M-353.7,14.9v-1.5h-1.9v1.5h-0.6v-3.6h0.6v1.6h1.9v-1.6h0.6v3.6H-353.7z"/>
	<path class="st5" d="M-349.8,13.8h-2.1c0.1,0.4,0.4,0.7,0.8,0.7c0.3,0,0.6-0.1,0.8-0.3l0.3,0.3c-0.3,0.3-0.7,0.5-1.1,0.5
		c-0.8,0-1.4-0.6-1.4-1.4c0-0.8,0.6-1.4,1.4-1.4C-350.1,12.1-349.7,12.8-349.8,13.8z M-350.3,13.3c0-0.4-0.3-0.7-0.8-0.7
		c-0.4,0-0.7,0.3-0.8,0.7H-350.3z"/>
	<path class="st5" d="M-348.7,14.4l1.6,0v0.5l-2.3,0v-0.4l1.6-1.8h-1.5v-0.5l2.2,0v0.4L-348.7,14.4z"/>
	<g>
		<path class="st4" d="M-356,46.2h-17.1c0.8,3.5,3.4,5.7,7,5.7c2.5,0,4.7-0.9,6.4-2.6l2.6,2.8c-2.2,2.4-5.4,3.8-9.3,3.8
			c-7,0-11.6-4.6-11.6-11.4c0-6.8,4.7-11.5,11.4-11.5C-358.6,32.8-355.4,38-356,46.2z M-360.2,42.6c-0.2-3.7-2.6-5.9-6.3-5.9
			c-3.6,0-6.1,2.3-6.6,5.9H-360.2z"/>
		<path class="st4" d="M-331,46.2h-17.1c0.8,3.5,3.4,5.7,7,5.7c2.5,0,4.7-0.9,6.4-2.6l2.6,2.8c-2.2,2.4-5.4,3.8-9.3,3.8
			c-7,0-11.6-4.6-11.6-11.4c0-6.8,4.7-11.5,11.4-11.5C-333.6,32.8-330.4,38-331,46.2z M-335.2,42.6c-0.2-3.7-2.6-5.9-6.3-5.9
			c-3.6,0-6.1,2.3-6.6,5.9H-335.2z"/>
	</g>
	<path class="st4" d="M-352.3-24.2c-7.6,0-13.5,3-13.5,6.9v8.9c0,3.8,5.9,6.9,13.5,6.9c1.7,0,3.5-0.2,5.1-0.5
		c0.4-0.1,0.7-0.4,0.7-0.9v-4.6h6.9c0.5,0,0.9-0.4,0.9-0.9c0,0,0,0,0-0.1c0,0,0,0,0-0.1v-8.7c0,0,0,0,0-0.1s0-0.1,0-0.1
		C-338.9-21.3-344.8-24.2-352.3-24.2z M-352.3-22.5c6.2,0,10.7,2.1,11.6,4.3h-11.6c-0.3,0-0.6,0.2-0.8,0.5c-0.1,0.3-0.1,0.7,0.1,0.9
		l3.9,4.4c-1.1,0.1-2.1,0.2-3.2,0.2c-7,0-11.8-2.6-11.8-5.2S-359.3-22.5-352.3-22.5z M-348.2-3.7c-1.3,0.2-2.6,0.3-4.1,0.3
		c-7,0-11.8-2.6-11.8-5.2V-14c2.3,2.1,6.7,3.5,11.8,3.5c1.4,0,2.8-0.1,4.1-0.3V-3.7z M-340.5-9.2h-6v-2.6c0-0.1,0-0.3-0.1-0.3
		c0,0,0,0,0,0c0,0,0-0.1-0.1-0.1c0,0,0,0,0,0l-3.7-4.1h9.9V-9.2z"/>
	<ellipse class="st6" cx="-226.9" cy="80.1" rx="196.7" ry="2.9"/>
	<g>
		<path class="st5" d="M-28.6,43.2v1.9h-0.8v-1.9h-2v-0.9h2v-1.9h0.8v1.9h1.9v0.9H-28.6z"/>
	</g>
	<circle class="st5" cx="-33.6" cy="53.1" r="2.3"/>
	<circle class="st5" cx="-205" cy="-150.6" r="2.3"/>
	<g>
		<path class="st5" d="M-223.7-139.2v2.3h-1v-2.3h-2.4v-1h2.4v-2.3h1v2.3h2.3v1H-223.7z"/>
	</g>
	<circle class="st7" cx="-219" cy="-156.4" r="3.5"/>
	<g>
		<path class="st5" d="M-413.5,18.5v2.4h-1v-2.4h-2.4v-1.1h2.4v-2.4h1v2.4h2.4v1.1H-413.5z"/>
	</g>
	<circle class="st5" cx="-408.5" cy="32.6" r="3.2"/>
	<circle class="st8" cx="-403.9" cy="9.7" r="2"/>
	<g>
		<path class="st5" d="M-33.2-137.4v1.9h-0.8v-1.9h-2v-0.9h2v-1.9h0.8v1.9h1.9v0.9H-33.2z"/>
	</g>
	<circle class="st7" cx="-26.7" cy="-142.5" r="2.3"/>
	<g>
		<path class="st1" d="M-334.7-85.7v1.9h-0.8v-1.9h-2v-0.9h2v-1.9h0.8v1.9h1.9v0.9H-334.7z"/>
	</g>
	<circle class="st5" cx="-339.7" cy="-75.8" r="2.3"/>
	<g>
		<path class="st9" d="M-201.7,77.2h-114.9c-5.8,0-10.5-4.7-10.5-10.5v-173.4c0-5.8,4.7-10.5,10.5-10.5h114.9
			c5.8,0,10.5,4.7,10.5,10.5V66.7C-191.2,72.5-195.9,77.2-201.7,77.2z"/>
		<g>
			<path class="st4" d="M-262.4,23.1c0,11.1-7.9,18.8-19.3,18.8c-11.5,0-19.3-7.6-19.3-18.8c0-11.2,7.9-18.8,19.3-18.8
				C-270.2,4.4-262.4,11.9-262.4,23.1z M-293,23.2c0,7.2,4.7,12,11.3,12c6.6,0,11.3-4.9,11.3-12c0-7.1-4.7-12-11.3-12
				C-288.3,11.2-293,16.1-293,23.2z"/>
			<path class="st4" d="M-231.9,37.1c-2.6,3.3-6.9,4.9-12.2,4.9c-8,0-13-4.9-13-11.5c0-6.7,5.1-11.1,14-11.1h11.2v-1.1
				c0-4.7-3-7.4-8.8-7.4c-3.5,0-7.2,1.3-10.9,3.8l-3.3-5.6c5.1-3.1,8.9-4.7,15.9-4.7c9.5,0,14.9,4.9,14.9,13l0.1,24.3h-7.9V37.1z
				 M-231.9,28.6v-3.4h-10c-5.2,0-7.6,1.4-7.6,4.9c0,3.3,2.7,5.5,7.2,5.5C-236.7,35.6-232.3,32.6-231.9,28.6z"/>
		</g>
		<path class="st4" d="M-267.6-41.9c1.2,0,2,0.6,2,1.5c0,0.7-0.4,1.2-1,1.3c0.8,0.1,1.3,0.7,1.3,1.5c0,1-0.8,1.6-2.1,1.6h-2.6v-5.9
			H-267.6z M-269.1-39.4h1.5c0.6,0,1-0.3,1-0.8c0-0.5-0.4-0.8-1-0.8h-1.5V-39.4z M-269.1-36.9h1.5c0.8,0,1.2-0.3,1.2-0.9
			c0-0.5-0.5-0.8-1.2-0.8h-1.5V-36.9z"/>
		<path class="st4" d="M-260-38.2c0,1.3-0.9,2.3-2.3,2.3c-1.4,0-2.3-0.9-2.3-2.3c0-1.4,0.9-2.3,2.3-2.3C-261-40.5-260-39.6-260-38.2
			z M-263.7-38.2c0,0.9,0.6,1.5,1.4,1.5c0.8,0,1.4-0.6,1.4-1.5c0-0.9-0.6-1.4-1.4-1.4C-263.1-39.7-263.7-39.1-263.7-38.2z"/>
		<path class="st4" d="M-256.3-36.5c-0.3,0.4-0.8,0.6-1.5,0.6c-1,0-1.6-0.6-1.6-1.4c0-0.8,0.6-1.3,1.7-1.3h1.4v-0.1
			c0-0.6-0.4-0.9-1.1-0.9c-0.4,0-0.9,0.2-1.3,0.5l-0.4-0.7c0.6-0.4,1.1-0.6,1.9-0.6c1.2,0,1.8,0.6,1.8,1.6l0,2.9h-0.9V-36.5z
			 M-256.3-37.6V-38h-1.2c-0.6,0-0.9,0.2-0.9,0.6c0,0.4,0.3,0.7,0.9,0.7C-256.9-36.7-256.4-37.1-256.3-37.6z"/>
		<path class="st4" d="M-251.5-36.3c-0.4,0.2-0.7,0.3-1.1,0.3c-0.7,0-1.3-0.4-1.3-1.3v-2.3h-0.6v-0.7h0.6v-1.2h1v1.2h1.3v0.7h-1.3
			v2.1c0,0.5,0.2,0.6,0.5,0.6c0.2,0,0.4-0.1,0.7-0.2L-251.5-36.3z"/>
		<path class="st5" d="M-262.9-28.1c0,1.3-0.8,2.3-2.1,2.3c-0.7,0-1.3-0.3-1.6-0.8v0.8h-1v-6.2h1v2.5c0.3-0.5,0.9-0.8,1.6-0.8
			C-263.8-30.4-262.9-29.5-262.9-28.1z M-263.9-28.1c0-0.8-0.6-1.4-1.4-1.4c-0.8,0-1.4,0.6-1.4,1.4c0,0.9,0.6,1.5,1.4,1.5
			C-264.5-26.7-263.9-27.3-263.9-28.1z"/>
		<path class="st5" d="M-257.7-28.1c0,1.3-0.9,2.3-2.3,2.3c-1.4,0-2.3-0.9-2.3-2.3c0-1.4,0.9-2.3,2.3-2.3
			C-258.6-30.4-257.7-29.5-257.7-28.1z M-261.4-28.1c0,0.9,0.6,1.5,1.4,1.5c0.8,0,1.4-0.6,1.4-1.5c0-0.9-0.6-1.4-1.4-1.4
			C-260.8-29.6-261.4-29-261.4-28.1z"/>
		<path class="st5" d="M-254.1-26.2c-0.4,0.2-0.7,0.3-1.1,0.3c-0.7,0-1.3-0.4-1.3-1.3v-2.3h-0.6v-0.7h0.6v-1.2h1v1.2h1.3v0.7h-1.3
			v2.1c0,0.5,0.2,0.6,0.5,0.6c0.2,0,0.4-0.1,0.7-0.2L-254.1-26.2z"/>
		<ellipse class="st6" cx="-261.4" cy="-49.3" rx="28.8" ry="1.2"/>
		<g>
			<polygon class="st4" points="-239.4,-49.9 -282.9,-49.9 -289.9,-61.5 -232.4,-61.5 			"/>
			<polygon class="st4" points="-257,-63.4 -256.7,-63.4 -241.5,-63.4 -249.1,-76.6 -256.7,-89.8 -257,-89.4 			"/>
			<polygon class="st4" points="-259.3,-63.4 -259.6,-63.4 -280.5,-63.4 -270,-81.4 -259.6,-99.5 -259.3,-99 			"/>
		</g>
	</g>
	<line class="st10" x1="-434" y1="77.2" x2="-22.1" y2="77.2"/>
	<path class="st11" d="M-53.5,77.2h-136.9c-6.6,0-12-5.4-12-12v-206.1c0-6.6,5.4-12,12-12h136.9c6.6,0,12,5.4,12,12V65.2
		C-41.5,71.9-46.9,77.2-53.5,77.2z"/>
	<path class="st4" d="M-133.2-62.9c1.8,0,2.8,0.9,2.8,2.4c0,1.6-1,2.5-2.8,2.5h-1.6v2.1h-1.2v-7H-133.2z M-134.8-59.1h1.6
		c1.1,0,1.7-0.5,1.7-1.4c0-0.9-0.6-1.4-1.7-1.4h-1.6V-59.1z"/>
	<path class="st4" d="M-124.2-59.2v3.3h-1.1v-3c0-0.8-0.5-1.3-1.3-1.3c-0.9,0-1.5,0.7-1.5,1.7v2.6h-1.1v-7.4h1.1v3.1
		c0.4-0.7,1.1-1.1,2-1.1C-124.9-61.3-124.2-60.5-124.2-59.2z"/>
	<path class="st4" d="M-117.6-58.6c0,1.6-1.1,2.7-2.8,2.7c-1.6,0-2.8-1.1-2.8-2.7c0-1.6,1.1-2.7,2.8-2.7
		C-118.8-61.3-117.6-60.2-117.6-58.6z M-122-58.6c0,1,0.7,1.7,1.6,1.7c0.9,0,1.6-0.7,1.6-1.7c0-1-0.7-1.7-1.6-1.7
		C-121.4-60.3-122-59.6-122-58.6z"/>
	<path class="st4" d="M-113.5-56.3c-0.4,0.2-0.9,0.4-1.3,0.4c-0.8,0-1.5-0.5-1.5-1.5v-2.7h-0.7V-61h0.7v-1.5h1.1v1.5h1.6v0.9h-1.6
		v2.5c0,0.5,0.2,0.7,0.6,0.7c0.2,0,0.5-0.1,0.8-0.2L-113.5-56.3z"/>
	<path class="st4" d="M-107.4-58.6c0,1.6-1.1,2.7-2.8,2.7c-1.6,0-2.8-1.1-2.8-2.7c0-1.6,1.1-2.7,2.8-2.7
		C-108.6-61.3-107.4-60.2-107.4-58.6z M-111.8-58.6c0,1,0.7,1.7,1.6,1.7c0.9,0,1.6-0.7,1.6-1.7c0-1-0.7-1.7-1.6-1.7
		C-111.1-60.3-111.8-59.6-111.8-58.6z"/>
	<path class="st5" d="M-129.6-49.7v0.6h1.4v0.9h-1.4v4.2h-1.1v-4.2h-0.7v-0.9h0.7v-0.5c0-1.2,0.9-1.8,1.8-1.8c0.4,0,0.9,0.1,1.2,0.4
		l-0.4,0.9c-0.2-0.2-0.5-0.2-0.7-0.2C-129.3-50.4-129.6-50.2-129.6-49.7z"/>
	<path class="st5" d="M-122.7-46.6c0,1.6-1.1,2.7-2.8,2.7c-1.6,0-2.8-1.1-2.8-2.7c0-1.6,1.1-2.7,2.8-2.7
		C-123.8-49.3-122.7-48.2-122.7-46.6z M-127-46.6c0,1,0.7,1.7,1.6,1.7c0.9,0,1.6-0.7,1.6-1.7c0-1-0.7-1.7-1.6-1.7
		C-126.4-48.3-127-47.6-127-46.6z"/>
	<path class="st5" d="M-118.5-44.3c-0.4,0.2-0.9,0.4-1.3,0.4c-0.8,0-1.5-0.5-1.5-1.5v-2.7h-0.7v-0.9h0.7v-1.5h1.1v1.5h1.6v0.9h-1.6
		v2.5c0,0.5,0.2,0.7,0.6,0.7c0.2,0,0.5-0.1,0.8-0.2L-118.5-44.3z"/>
	<path class="st5" d="M-112.5-46.6c0,1.6-1.1,2.7-2.8,2.7c-1.6,0-2.8-1.1-2.8-2.7c0-1.6,1.1-2.7,2.8-2.7
		C-113.6-49.3-112.5-48.2-112.5-46.6z M-116.8-46.6c0,1,0.7,1.7,1.6,1.7c0.9,0,1.6-0.7,1.6-1.7c0-1-0.7-1.7-1.6-1.7
		C-116.2-48.3-116.8-47.6-116.8-46.6z"/>
	<g>
		<path class="st4" d="M-123.7,12.8c0,13.6-8.5,22.9-21.5,22.9c-7.3,0-12.7-2.9-16.1-8.2V52h-9.8v-62.1h9.8v7.9
			c3.3-5.3,8.8-8.2,15.9-8.2C-132.5-10.5-123.7-1.1-123.7,12.8z M-133.6,12.5c0-8.5-5.7-14.7-13.9-14.7s-13.8,6.2-13.8,14.7
			c0,8.8,5.7,14.9,13.8,14.9S-133.6,21.2-133.6,12.5z"/>
		<path class="st4" d="M-69.4,7.1v28.3h-9.8V9.8c0-6.8-4.1-11-10.9-11c-8.1,0.1-13,6.2-13,14.2v22.4h-9.8v-63.4h9.8v26.8
			c3.2-6.4,9.1-9.2,16.8-9.2C-75.7-10.5-69.4-3.8-69.4,7.1z"/>
	</g>
	<g>
		<path class="st5" d="M-157-129.6v56.1h72.8v-56.1L-157-129.6L-157-129.6z"/>
	</g>
	<g>
		<path class="st4" d="M-157-129.6v56.1h72.8v-56.1L-157-129.6L-157-129.6z M-88.4-125.5v24.4l-17.3-13.2l-19.1,18.8l-13.4-7.5
			l-14.6,11.6v-34.2H-88.4z"/>
		<circle class="st4" cx="-142.1" cy="-114.7" r="5.2"/>
	</g>
</g>
<g>
	<rect x="94.5" y="-290.4" class="st12" width="169" height="224.3"/>
	<g>
		<rect x="116.4" y="-268.4" class="st1" width="126.2" height="13.6"/>
		<rect x="116.4" y="-237.2" class="st1" width="126.2" height="13.6"/>
		<rect x="116.4" y="-160" class="st1" width="126.2" height="13.6"/>
		<rect x="116.4" y="-131.8" class="st1" width="126.2" height="13.6"/>
		<rect x="116.4" y="-104.7" class="st1" width="126.2" height="13.6"/>
		<rect x="183.2" y="-209" class="st1" width="59.5" height="34.4"/>
		<rect x="116.4" y="-209" class="st1" width="59.5" height="34.4"/>
	</g>
	<polygon class="st13" points="119.1,-146.9 328.7,-178.2 266.1,-231.8 210.8,-316.9 	"/>
	<circle class="st12" cx="285.4" cy="-261.1" r="93.4"/>
	<g>
		<path class="st14" d="M217.9-285.3c3.5,0,6,2.5,6,5.8c0,3.4-2.6,5.8-6.1,5.8h-4.7v-11.7H217.9z M215.1-275.4h2.9
			c2.3,0,4-1.7,4-4.1c0-2.4-1.8-4.1-4.1-4.1h-2.8V-275.4z"/>
		<path class="st14" d="M234.4-278.1c0,2.7-1.9,4.5-4.6,4.5c-2.8,0-4.6-1.8-4.6-4.5c0-2.7,1.9-4.5,4.6-4.5
			C232.5-282.6,234.4-280.8,234.4-278.1z M227-278.1c0,1.7,1.1,2.9,2.7,2.9c1.6,0,2.7-1.2,2.7-2.9c0-1.7-1.1-2.9-2.7-2.9
			C228.1-281,227-279.8,227-278.1z"/>
	</g>
	<g>
		<path class="st14" d="M326.5-274.2c-0.7,0.4-1.4,0.7-2.2,0.7c-1.3,0-2.5-0.8-2.5-2.6v-4.6h-1.3v-1.4h1.3v-2.4h1.9v2.4h2.6v1.4
			h-2.6v4.3c0,0.9,0.4,1.2,1,1.2c0.4,0,0.8-0.1,1.3-0.4L326.5-274.2z"/>
		<path class="st14" d="M336.6-278.1c0,2.7-1.9,4.5-4.6,4.5c-2.8,0-4.6-1.8-4.6-4.5c0-2.7,1.9-4.5,4.6-4.5
			C334.7-282.6,336.6-280.8,336.6-278.1z M329.2-278.1c0,1.7,1.1,2.9,2.7,2.9c1.6,0,2.7-1.2,2.7-2.9c0-1.7-1.1-2.9-2.7-2.9
			C330.3-281,329.2-279.8,329.2-278.1z"/>
	</g>
	<path class="st14" d="M350.9-274.5c0,2.6-1.8,4.2-4.6,4.2c-1.4,0-2.6-0.4-3.7-1.2l0.8-1.4c0.8,0.6,1.7,1,2.8,1c1.7,0,2.8-1,2.8-2.5
		v-1.1c-0.6,1-1.6,1.5-2.9,1.5c-2.4,0-4-1.7-4-4.3c0-2.5,1.6-4.2,3.9-4.2c1.4,0,2.4,0.5,3,1.5v-1.4h1.9V-274.5z M349-278.3
		c0-1.6-1.1-2.7-2.6-2.7c-1.5,0-2.6,1.1-2.6,2.7c0,1.6,1.1,2.7,2.6,2.7C347.9-275.6,349-276.7,349-278.3z"/>
	<path class="st14" d="M362-278.1c0,2.7-1.9,4.5-4.6,4.5c-2.8,0-4.6-1.8-4.6-4.5c0-2.7,1.9-4.5,4.6-4.5
		C360.1-282.6,362-280.8,362-278.1z M354.6-278.1c0,1.7,1.1,2.9,2.7,2.9c1.6,0,2.7-1.2,2.7-2.9c0-1.7-1.1-2.9-2.7-2.9
		C355.8-281,354.6-279.8,354.6-278.1z"/>
	<g>
		<path class="st14" d="M208.2-254.2c-0.7,0.4-1.4,0.7-2.2,0.7c-1.3,0-2.5-0.8-2.5-2.6v-4.6h-1.3v-1.4h1.3v-2.4h1.9v2.4h2.6v1.4
			h-2.6v4.3c0,0.9,0.4,1.2,1,1.2c0.4,0,0.8-0.1,1.3-0.4L208.2-254.2z"/>
		<path class="st14" d="M218.3-258.1c0,2.7-1.9,4.5-4.6,4.5c-2.8,0-4.6-1.8-4.6-4.5c0-2.7,1.9-4.5,4.6-4.5
			C216.4-262.6,218.3-260.8,218.3-258.1z M211-258.1c0,1.7,1.1,2.9,2.7,2.9c1.6,0,2.7-1.2,2.7-2.9c0-1.7-1.1-2.9-2.7-2.9
			C212.1-260.9,211-259.8,211-258.1z"/>
	</g>
	<path class="st14" d="M229.6-254.2c-0.7,0.4-1.4,0.7-2.2,0.7c-1.3,0-2.5-0.8-2.5-2.6v-4.6h-1.3v-1.4h1.3v-2.4h1.9v2.4h2.6v1.4h-2.6
		v4.3c0,0.9,0.4,1.2,1,1.2c0.4,0,0.8-0.1,1.3-0.4L229.6-254.2z"/>
	<path class="st14" d="M240-259.2v5.5h-1.9v-5c0-1.3-0.8-2.2-2.1-2.2c-1.6,0-2.5,1.2-2.5,2.8v4.4h-1.9V-266h1.9v5.2
		c0.6-1.3,1.8-1.8,3.3-1.8C238.8-262.6,240-261.3,240-259.2z"/>
	<path class="st14" d="M250.4-257.3h-6.7c0.3,1.4,1.4,2.2,2.8,2.2c1,0,1.9-0.4,2.5-1l1,1.1c-0.9,1-2.1,1.5-3.7,1.5
		c-2.7,0-4.5-1.8-4.5-4.5c0-2.7,1.9-4.5,4.5-4.5C249.3-262.6,250.6-260.5,250.4-257.3z M248.7-258.7c-0.1-1.4-1-2.3-2.5-2.3
		c-1.4,0-2.4,0.9-2.6,2.3H248.7z"/>
	<g>
		<path class="st4" d="M244.2-272.4c-0.6,1.4-1.6,2.1-2.9,2.1c-0.8,0-1.4-0.2-2.1-0.8l0.8-1.5c0.4,0.3,0.8,0.4,1.2,0.4
			c0.6,0,1.1-0.3,1.4-1l0.3-0.7l-3.7-8.7h2l2.7,6.7l2.5-6.7h1.9L244.2-272.4z"/>
		<path class="st4" d="M257.6-278.1c0,2.7-1.9,4.5-4.6,4.5c-2.8,0-4.6-1.8-4.6-4.5c0-2.7,1.9-4.5,4.6-4.5
			C255.8-282.6,257.6-280.8,257.6-278.1z M250.3-278.1c0,1.7,1.1,2.9,2.7,2.9c1.6,0,2.7-1.2,2.7-2.9c0-1.7-1.1-2.9-2.7-2.9
			C251.4-281,250.3-279.8,250.3-278.1z"/>
		<path class="st4" d="M267.7-273.7h-1.9v-1.7c-0.6,1.2-1.7,1.8-3.2,1.8c-2,0-3.3-1.3-3.3-3.4v-5.5h1.9v5c0,1.3,0.8,2.2,2.1,2.2
			c1.5,0,2.4-1.2,2.4-2.8v-4.4h1.9V-273.7z"/>
		<path class="st4" d="M283.2-273.7l-2.3-6.6l-2.3,6.6h-2l-3.3-8.9h2l2.3,7l2.2-7h2l2.3,7l2.3-7h2l-3.2,8.9H283.2z"/>
		<path class="st4" d="M294.8-274.7c-0.6,0.8-1.7,1.2-2.9,1.2c-1.9,0-3.1-1.2-3.1-2.8c0-1.6,1.2-2.7,3.4-2.7h2.7v-0.3
			c0-1.1-0.7-1.8-2.1-1.8c-0.9,0-1.7,0.3-2.6,0.9l-0.8-1.3c1.2-0.7,2.1-1.1,3.8-1.1c2.3,0,3.6,1.2,3.6,3.1l0,5.8h-1.9V-274.7z
			 M294.8-276.8v-0.8h-2.4c-1.3,0-1.8,0.3-1.8,1.2c0,0.8,0.7,1.3,1.7,1.3C293.7-275.1,294.7-275.8,294.8-276.8z"/>
		<path class="st4" d="M307.8-279.2v5.5h-1.9v-5c0-1.3-0.8-2.2-2.1-2.2c-1.5,0-2.4,1-2.5,2.4v4.7h-1.9v-8.9h1.9v1.7
			c0.6-1.2,1.8-1.8,3.3-1.8C306.5-282.6,307.8-281.3,307.8-279.2z"/>
		<path class="st4" d="M315.4-274.2c-0.7,0.4-1.4,0.7-2.2,0.7c-1.3,0-2.5-0.8-2.5-2.6v-4.6h-1.3v-1.4h1.3v-2.4h1.9v2.4h2.6v1.4h-2.6
			v4.3c0,0.9,0.4,1.2,1,1.2c0.4,0,0.8-0.1,1.3-0.4L315.4-274.2z"/>
		<path class="st4" d="M258.4-255.2l5.2,0v1.6l-7.6,0v-1.3l5.1-6h-4.9v-1.6l7.3,0v1.3L258.4-255.2z"/>
		<path class="st4" d="M274-258.1c0,2.7-1.9,4.5-4.6,4.5c-2.8,0-4.6-1.8-4.6-4.5c0-2.7,1.9-4.5,4.6-4.5
			C272.1-262.6,274-260.8,274-258.1z M266.6-258.1c0,1.7,1.1,2.9,2.7,2.9c1.6,0,2.7-1.2,2.7-2.9c0-1.7-1.1-2.9-2.7-2.9
			C267.7-260.9,266.6-259.8,266.6-258.1z"/>
		<path class="st4" d="M284.4-258.1c0,2.7-1.9,4.5-4.6,4.5c-2.8,0-4.6-1.8-4.6-4.5c0-2.7,1.9-4.5,4.6-4.5
			C282.5-262.6,284.4-260.8,284.4-258.1z M277.1-258.1c0,1.7,1.1,2.9,2.7,2.9c1.6,0,2.7-1.2,2.7-2.9c0-1.7-1.1-2.9-2.7-2.9
			C278.2-260.9,277.1-259.8,277.1-258.1z"/>
		<path class="st4" d="M295.7-254.2c-0.7,0.4-1.4,0.7-2.2,0.7c-1.3,0-2.5-0.8-2.5-2.6v-4.6h-1.3v-1.4h1.3v-2.4h1.9v2.4h2.6v1.4H293
			v4.3c0,0.9,0.4,1.2,1,1.2c0.4,0,0.8-0.1,1.3-0.4L295.7-254.2z"/>
		<path class="st4" d="M305.8-258.1c0,2.7-1.9,4.5-4.6,4.5c-2.8,0-4.6-1.8-4.6-4.5c0-2.7,1.9-4.5,4.6-4.5
			C303.9-262.6,305.8-260.8,305.8-258.1z M298.5-258.1c0,1.7,1.1,2.9,2.7,2.9c1.6,0,2.7-1.2,2.7-2.9c0-1.7-1.1-2.9-2.7-2.9
			C299.6-260.9,298.5-259.8,298.5-258.1z"/>
		<path class="st4" d="M322.7-259.2v5.5h-1.9v-5c0-1.4-0.8-2.2-2.1-2.2c-1.5,0-2.4,1.2-2.4,2.8v4.4h-1.9v-5c0-1.4-0.8-2.2-2.1-2.2
			c-1.5,0-2.5,1.2-2.5,2.8v4.4h-1.9v-8.9h1.9v1.7c0.6-1.3,1.8-1.8,3.2-1.8c1.6,0,2.7,0.8,3.1,2.1c0.6-1.5,1.8-2.1,3.4-2.1
			C321.5-262.6,322.7-261.3,322.7-259.2z"/>
		<path class="st4" d="M333.7-258.1c0,2.7-1.9,4.5-4.6,4.5c-2.8,0-4.6-1.8-4.6-4.5c0-2.7,1.9-4.5,4.6-4.5
			C331.8-262.6,333.7-260.8,333.7-258.1z M326.3-258.1c0,1.7,1.1,2.9,2.7,2.9c1.6,0,2.7-1.2,2.7-2.9c0-1.7-1.1-2.9-2.7-2.9
			C327.4-260.9,326.3-259.8,326.3-258.1z"/>
		<path class="st4" d="M337.6-260.7c0.6-1.2,1.7-1.8,3.1-1.8v1.8c-1.8-0.1-2.9,1-3.1,2.5v4.6h-1.9v-8.9h1.9V-260.7z"/>
		<path class="st4" d="M344.2-260.7c0.6-1.2,1.7-1.8,3.1-1.8v1.8c-1.8-0.1-2.9,1-3.1,2.5v4.6h-1.9v-8.9h1.9V-260.7z"/>
		<path class="st4" d="M357.3-258.1c0,2.7-1.9,4.5-4.6,4.5c-2.8,0-4.6-1.8-4.6-4.5c0-2.7,1.9-4.5,4.6-4.5
			C355.4-262.6,357.3-260.8,357.3-258.1z M349.9-258.1c0,1.7,1.1,2.9,2.7,2.9c1.6,0,2.7-1.2,2.7-2.9c0-1.7-1.1-2.9-2.7-2.9
			C351-260.9,349.9-259.8,349.9-258.1z"/>
		<path class="st4" d="M367.3-253.6l-2.3-6.6l-2.3,6.6h-2l-3.3-8.9h2l2.3,7l2.2-7h2l2.3,7l2.3-7h2l-3.2,8.9H367.3z"/>
		<path class="st4" d="M243.7-234.7c-0.6,0.8-1.7,1.2-2.9,1.2c-1.9,0-3.1-1.2-3.1-2.8c0-1.6,1.2-2.7,3.4-2.7h2.7v-0.3
			c0-1.1-0.7-1.8-2.1-1.8c-0.9,0-1.7,0.3-2.6,0.9l-0.8-1.3c1.2-0.7,2.1-1.1,3.8-1.1c2.3,0,3.6,1.2,3.6,3.1l0,5.8h-1.9V-234.7z
			 M243.6-236.7v-0.8h-2.4c-1.3,0-1.8,0.3-1.8,1.2c0,0.8,0.7,1.3,1.7,1.3C242.5-235,243.5-235.8,243.6-236.7z"/>
		<path class="st4" d="M250.4-243.2v1.1h2.3v1.4h-2.3v7.1h-1.9v-7.1h-1.2v-1.4h1.2v-0.9c0-2.1,1.5-3.1,3.1-3.1c0.7,0,1.4,0.2,2,0.6
			l-0.7,1.5c-0.4-0.3-0.8-0.4-1.2-0.4C250.9-244.4,250.4-244,250.4-243.2z"/>
		<path class="st4" d="M259-234.2c-0.7,0.4-1.4,0.7-2.2,0.7c-1.3,0-2.5-0.8-2.5-2.6v-4.6h-1.3v-1.4h1.3v-2.4h1.9v2.4h2.6v1.4h-2.6
			v4.3c0,0.9,0.4,1.2,1,1.2c0.4,0,0.8-0.1,1.3-0.4L259-234.2z"/>
		<path class="st4" d="M268.5-237.3h-6.7c0.3,1.4,1.4,2.2,2.8,2.2c1,0,1.9-0.4,2.5-1l1,1.1c-0.9,1-2.1,1.5-3.7,1.5
			c-2.7,0-4.5-1.8-4.5-4.5c0-2.7,1.9-4.5,4.5-4.5C267.5-242.6,268.7-240.5,268.5-237.3z M266.8-238.7c-0.1-1.4-1-2.3-2.5-2.3
			c-1.4,0-2.4,0.9-2.6,2.3H266.8z"/>
		<path class="st4" d="M272.4-240.7c0.6-1.2,1.7-1.8,3.1-1.8v1.8c-1.8-0.1-2.9,1-3.1,2.5v4.6h-1.9v-8.9h1.9V-240.7z"/>
		<path class="st4" d="M287.1-241.7l-0.7,1.4c-0.8-0.5-1.8-0.8-2.6-0.8c-0.8,0-1.3,0.3-1.3,0.9c0,1.6,4.7,0.8,4.7,4
			c0,1.8-1.6,2.6-3.4,2.6c-1.3,0-2.7-0.4-3.6-1.2l0.7-1.4c0.8,0.7,2,1.1,3,1.1c0.8,0,1.5-0.3,1.5-1c0-1.8-4.7-0.8-4.7-4
			c0-1.8,1.6-2.6,3.3-2.6C285.1-242.6,286.3-242.2,287.1-241.7z"/>
		<path class="st4" d="M296.5-241.1l-1.1,1.2c-0.6-0.6-1.5-1-2.5-1c-1.5,0-2.6,1.2-2.6,2.8s1.1,2.8,2.6,2.8c1.1,0,2-0.4,2.6-1.1
			l1.1,1.1c-0.8,1.1-2.1,1.7-3.8,1.7c-2.6,0-4.5-1.8-4.5-4.5c0-2.7,1.8-4.5,4.5-4.5C294.5-242.6,295.7-242,296.5-241.1z"/>
		<path class="st4" d="M307.2-239.1v5.5h-1.9v-5c0-1.3-0.8-2.2-2.1-2.2c-1.6,0-2.5,1.2-2.5,2.8v4.4h-1.9V-246h1.9v5.2
			c0.6-1.3,1.8-1.8,3.3-1.8C306-242.6,307.2-241.3,307.2-239.1z"/>
		<path class="st4" d="M318.2-238c0,2.7-1.9,4.5-4.6,4.5c-2.8,0-4.6-1.8-4.6-4.5c0-2.7,1.9-4.5,4.6-4.5
			C316.3-242.6,318.2-240.7,318.2-238z M310.9-238c0,1.7,1.1,2.9,2.7,2.9c1.6,0,2.7-1.2,2.7-2.9c0-1.7-1.1-2.9-2.7-2.9
			C312-240.9,310.9-239.7,310.9-238z"/>
		<path class="st4" d="M328.7-238c0,2.7-1.9,4.5-4.6,4.5c-2.8,0-4.6-1.8-4.6-4.5c0-2.7,1.9-4.5,4.6-4.5
			C326.8-242.6,328.7-240.7,328.7-238z M321.3-238c0,1.7,1.1,2.9,2.7,2.9c1.6,0,2.7-1.2,2.7-2.9c0-1.7-1.1-2.9-2.7-2.9
			C322.4-240.9,321.3-239.7,321.3-238z"/>
		<path class="st4" d="M330.7-233.6V-246h1.9v12.4H330.7z"/>
		<path class="st4" d="M334.2-241.9c0.1-2.1,1.4-3.3,3.5-3.3c2,0,3.3,1,3.3,2.8c0,2.6-2.6,2.8-2.6,5h-1.5c0-2.7,2.3-2.7,2.3-4.7
			c0-1-0.7-1.4-1.7-1.4c-1.1,0-1.7,0.6-1.8,1.7L334.2-241.9z M338.7-234.6c0,0.7-0.5,1.1-1.1,1.1c-0.6,0-1.1-0.5-1.1-1.1
			c0-0.6,0.5-1.1,1.1-1.1C338.2-235.7,338.7-235.2,338.7-234.6z"/>
	</g>
	<circle class="st5" cx="193.6" cy="-311.2" r="2.1"/>
	<g>
		<path class="st5" d="M176.7-300.9v2.1h-0.9v-2.1h-2.1v-1h2.1v-2.1h0.9v2.1h2.1v1H176.7z"/>
	</g>
	<circle class="st8" cx="181" cy="-316.5" r="3.2"/>
	<circle class="st5" cx="270.8" cy="-125.5" r="2.1"/>
	<g>
		<path class="st5" d="M277.9-138.2v2.1H277v-2.1h-2.1v-1h2.1v-2.1h0.9v2.1h2.1v1H277.9z"/>
	</g>
	<circle class="st7" cx="272.8" cy="-150.7" r="3.2"/>
	<circle class="st5" cx="349" cy="-349.8" r="2.1"/>
	<g>
		<path class="st5" d="M355.1-337.4v2.1h-0.9v-2.1H352v-1h2.1v-2.1h0.9v2.1h2.1v1H355.1z"/>
	</g>
	<circle class="st5" cx="79.9" cy="-94.2" r="2.1"/>
	<circle class="st8" cx="67.3" cy="-99.5" r="3.2"/>
	<line class="st15" x1="51.8" y1="-65" x2="307.3" y2="-65"/>
	<line class="st16" x1="51.8" y1="-64" x2="307.3" y2="-64"/>
</g>
<g>
	<path class="st12" d="M640.7,10H495.9c-6.6,0-12-5.4-12-12v-217.4c0-6.6,5.4-12,12-12h144.7c6.6,0,12,5.4,12,12V-2
		C652.7,4.7,647.3,10,640.7,10z"/>
	<path class="st17" d="M786.8,36.6L651.7,5.7c-6.6,0-21.8,10.6-21.8,4l0.1-202.5c0-6.6,5.3-11.9,11.9-11.9l10.8-0.1
		c6.6,0-3,50-3,56.6l-2,86.4C647.8-55.3,793.4,36.6,786.8,36.6z"/>
	<path class="st4" d="M598.2-160l0.1,1.3c14.6-6.1,26.4-6.5,35.2,8.3c-13.1,4.6-21.8,5.5-35.5,2.3c2.2,15.1-5.2,26.2-10.6,38.9
		c7.9,4.1,6,21.8-1,25.6c-12.4,3-21.1,3.5-36,0c-7-3.8-8.9-21.5-1-25.6c-5.4-12.7-12.8-23.8-10.6-38.9c-13.7,3.2-22.5,2.3-35.5-2.3
		c8.9-14.8,20.6-14.4,35.2-8.3l0.2-2l-11.6-14.9l-9.5-16.5l14.9,10.2l16.5,8.6c12.5-7.8,26.7-7.8,39.1,0.2l16.8-8.8l14.9-10.2
		l-9.5,16.5L598.2-160L598.2-160z M581-80c-3.7,7.7-20.8,7.5-24.9,0.3C563.5-77.2,574-77.2,581-80L581-80z M557.9-104.3
		c-1.7,0-3,1.2-3,2.7s1.3,2.7,3,2.7c1.7,0,3-1.2,3-2.7S559.6-104.3,557.9-104.3L557.9-104.3z M578.6-104.3c-1.7,0-3,1.2-3,2.7
		s1.3,2.7,3,2.7s3-1.2,3-2.7S580.3-104.3,578.6-104.3z"/>
	<g>
		<path class="st4" d="M529.2-26.3v7h-5.4v-34.9h5.4v21.1l11.1-11.2h6.2l-9.3,9.7l10,15.3h-6.4l-7.3-11.5L529.2-26.3z"/>
		<path class="st4" d="M574.1-31.8c0,7.5-5.3,12.7-13,12.7c-7.8,0-13.1-5.2-13.1-12.7c0-7.6,5.3-12.7,13.1-12.7
			C568.8-44.5,574.1-39.3,574.1-31.8z M553.4-31.7c0,4.8,3.2,8.1,7.7,8.1c4.5,0,7.6-3.3,7.6-8.1c0-4.8-3.2-8.1-7.6-8.1
			C556.6-39.8,553.4-36.5,553.4-31.7z"/>
		<path class="st4" d="M602.3-19.2L596-37.8l-6.3,18.5h-5.6l-9.2-25h5.6l6.5,19.7l6.3-19.7h5.6l6.3,19.7l6.4-19.7h5.5l-9.1,25H602.3
			z"/>
	</g>
	<g>
		<g class="st18">
			<path class="st19" d="M576.7-221.1h7.8l-10.6,16.1l11.4,17h-8.2l-7.9-12.1l-8.5,12.1h-8l11.7-17l-10.9-16.1h8.2l7.4,11.3
				L576.7-221.1z"/>
		</g>
		<g class="st20">
			<path class="st21" d="M575.7-221.1h7.8l-10.6,16.1l11.4,17h-8.2l-7.9-12.1l-8.5,12.1h-8l11.7-17l-10.9-16.1h8.2l7.4,11.3
				L575.7-221.1z"/>
		</g>
	</g>
	<path class="st12" d="M793,43.4H648.2c-6.6,0-12-5.4-12-12v-217.4c0-6.6,5.4-12,12-12H793c6.6,0,12,5.4,12,12V31.4
		C805,38,799.6,43.4,793,43.4z"/>
	<path class="st4" d="M750.5-126.6l0.1,1.3c14.6-6.1,26.4-6.5,35.2,8.3c-13.1,4.6-21.8,5.5-35.5,2.3c2.2,15.1-5.2,26.2-10.6,38.9
		c7.9,4.1,6,21.8-1,25.6c-12.4,3-21.1,3.5-36,0c-7-3.8-8.9-21.5-1-25.6c-5.4-12.7-12.8-23.8-10.6-38.9c-13.7,3.2-22.5,2.3-35.5-2.3
		c8.9-14.8,20.6-14.4,35.2-8.3l0.2-2l-11.6-14.9l-9.5-16.5l14.9,10.2l16.5,8.6c12.5-7.8,26.7-7.8,39.1,0.2l16.8-8.8l14.9-10.2
		l-9.5,16.5L750.5-126.6L750.5-126.6z M733.3-46.6c-3.7,7.7-20.8,7.5-24.9,0.3C715.8-43.8,726.3-43.8,733.3-46.6L733.3-46.6z
		 M710.2-71c-1.7,0-3,1.2-3,2.7s1.3,2.7,3,2.7c1.7,0,3-1.2,3-2.7S711.9-71,710.2-71L710.2-71z M730.9-71c-1.7,0-3,1.2-3,2.7
		s1.3,2.7,3,2.7c1.7,0,3-1.2,3-2.7S732.6-71,730.9-71z"/>
	<g>
		<path class="st4" d="M697.1-7l-3,3.5c-1.7-1.8-4.1-2.9-7.1-2.8c-4.3,0-7.4,3.2-7.4,8c0,4.7,3.1,8,7.4,8c3.2,0,5.7-1,7.4-3l3,3
			c-2.3,3-5.9,4.7-10.6,4.7c-7.4,0-12.6-5.1-12.6-12.7c0-7.6,5.2-12.7,12.6-12.7C691.3-11.1,694.8-9.6,697.1-7z"/>
		<path class="st4" d="M725.8,1.6c0,7.5-5.3,12.7-13,12.7c-7.8,0-13.1-5.2-13.1-12.7c0-7.6,5.3-12.7,13.1-12.7
			C720.5-11.1,725.8-5.9,725.8,1.6z M705.1,1.7c0,4.8,3.2,8.1,7.7,8.1c4.5,0,7.6-3.3,7.6-8.1c0-4.8-3.2-8.1-7.6-8.1
			C708.2-6.4,705.1-3.1,705.1,1.7z"/>
		<path class="st4" d="M754,14.1l-6.3-18.5l-6.3,18.5h-5.5l-9.2-25h5.5l6.5,19.7l6.3-19.7h5.6l6.3,19.7l6.4-19.7h5.5l-9.1,25H754z"
			/>
	</g>
	<g>
		<path class="st22" d="M740.6-187.9c-11.6,7.1-20,16.1-23.8,20.6l-9.3-7.3l-4.1,3.3l16,16.3c2.8-7.1,11.5-20.8,22.1-30.6
			L740.6-187.9z"/>
		<path class="st23" d="M741.6-187.9c-11.6,7.1-20,16.1-23.8,20.6l-9.3-7.3l-4.1,3.3l16,16.3c2.8-7.1,11.5-20.8,22.1-30.6
			L741.6-187.9z"/>
	</g>
	<circle class="st5" cx="488.9" cy="-241.6" r="2"/>
	<g>
		<path class="st5" d="M472.8-231.7v2H472v-2h-2v-0.9h2v-2h0.9v2h2v0.9H472.8z"/>
	</g>
	<circle class="st7" cx="476.9" cy="-246.6" r="3.1"/>
	<g>
		<path class="st5" d="M475.8-38.1v2h-0.9v-2h-2V-39h2v-2h0.9v2h2v0.9H475.8z"/>
	</g>
	<circle class="st7" cx="463" cy="-61.9" r="3.1"/>
	<circle class="st5" cx="825.5" cy="17.6" r="2"/>
	
		<ellipse transform="matrix(0.8236 -0.5672 0.5672 0.8236 136.3736 463.5934)" class="st8" cx="813.5" cy="12.6" rx="3.1" ry="3.1"/>
	<ellipse transform="matrix(0.8236 -0.5672 0.5672 0.8236 130.4913 468.511)" class="st8" cx="818.5" cy="24.5" rx="3.1" ry="3.1"/>
	<g>
		<path class="st5" d="M617.8-251.6v2h-0.9v-2h-2v-0.9h2v-2h0.9v2h2v0.9H617.8z"/>
	</g>
	<circle class="st8" cx="625.8" cy="-246.6" r="3.1"/>
	<circle class="st5" cx="809.6" cy="-202.8" r="2"/>
	<g>
		<path class="st5" d="M786.6-204.9v2h-0.9v-2h-2v-0.9h2v-2h0.9v2h2v0.9H786.6z"/>
	</g>
	<circle class="st7" cx="799.6" cy="-209.9" r="3.1"/>
</g>
<g>
	<rect x="613.7" y="264.7" class="st24" width="97.3" height="192.1"/>
	<rect x="692" y="264.7" class="st11" width="150.9" height="192.1"/>
	<rect x="676.2" y="317.1" class="st1" width="152.9" height="5.1"/>
	<rect x="676.8" y="300.1" class="st1" width="152.9" height="5.1"/>
	<rect x="676.8" y="334.2" class="st1" width="152.9" height="5.1"/>
	<rect x="676.8" y="349.4" class="st1" width="152.9" height="5.1"/>
	<rect x="676.8" y="367.1" class="st1" width="152.9" height="5.1"/>
	<rect x="676.2" y="381.6" class="st1" width="152.9" height="5.1"/>
	<rect x="676.8" y="398.7" class="st1" width="152.9" height="5.1"/>
	<rect x="676.8" y="413.8" class="st1" width="152.9" height="5.1"/>
	<rect x="676.8" y="431.5" class="st1" width="152.9" height="5.1"/>
	<rect x="523.9" y="226.8" class="st11" width="180.7" height="230"/>
	<rect x="537.2" y="314.6" class="st1" width="152.9" height="5.1"/>
	<rect x="537.8" y="331.7" class="st1" width="152.9" height="5.1"/>
	<rect x="537.8" y="346.8" class="st1" width="152.9" height="5.1"/>
	<rect x="537.8" y="364.5" class="st1" width="152.9" height="5.1"/>
	<rect x="551.7" y="401.2" class="st1" width="139" height="5.1"/>
	<rect x="551.7" y="420.1" class="st1" width="139" height="5.1"/>
	<rect x="551.7" y="439.1" class="st1" width="139" height="5.1"/>
	<rect x="523.3" y="226.2" class="st25" width="180.7" height="77.1"/>
	<g>
		<path d="M542.4,406.1c-0.5,0.6-1.3,0.9-2.2,0.9c-1.5,0-2.4-0.9-2.4-2.1c0-1.2,0.9-2,2.5-2h2v-0.2c0-0.8-0.5-1.4-1.6-1.4
			c-0.6,0-1.3,0.2-2,0.7l-0.6-1c0.9-0.6,1.6-0.8,2.9-0.8c1.7,0,2.7,0.9,2.7,2.4l0,4.4h-1.4V406.1z M542.4,404.5v-0.6h-1.8
			c-0.9,0-1.4,0.3-1.4,0.9c0,0.6,0.5,1,1.3,1C541.5,405.8,542.3,405.3,542.4,404.5z"/>
	</g>
	<g>
		<path d="M544.8,423.8c0,2-1.3,3.4-3.2,3.4c-1.1,0-1.9-0.4-2.4-1.2v1.2h-1.5v-9.4h1.5v3.8c0.5-0.8,1.3-1.2,2.3-1.2
			C543.5,420.3,544.8,421.7,544.8,423.8z M543.4,423.7c0-1.3-0.8-2.2-2-2.2c-1.2,0-2,0.9-2,2.2c0,1.3,0.8,2.2,2,2.2
			C542.5,425.9,543.4,425,543.4,423.7z"/>
	</g>
	<g>
		<path d="M544,439.1l-0.8,0.9c-0.5-0.5-1.1-0.8-1.9-0.8c-1.2,0-2,0.9-2,2.1s0.8,2.1,2,2.1c0.8,0,1.5-0.3,2-0.8l0.8,0.8
			c-0.6,0.8-1.6,1.3-2.9,1.3c-2,0-3.4-1.4-3.4-3.4c0-2,1.4-3.4,3.4-3.4C542.5,438,543.4,438.4,544,439.1z"/>
	</g>
	<polygon class="st26" points="614.7,254 631.5,272.6 648.4,291.2 614.7,291.2 580.9,291.2 597.8,272.6 	"/>
	<polygon class="st27" points="581.5,264.1 593.8,277.7 606.1,291.2 581.5,291.2 556.9,291.2 569.2,277.7 	"/>
	<circle class="st5" cx="660.4" cy="254.6" r="8.8"/>
	<circle class="st5" cx="724.9" cy="250.8" r="2.5"/>
	<g>
		<path class="st5" d="M714.5,239.3v2.6h-1.1v-2.6h-2.6v-1.2h2.6v-2.6h1.1v2.6h2.6v1.2H714.5z"/>
	</g>
	<circle class="st7" cx="727.3" cy="227.9" r="3.9"/>
	<circle class="st5" cx="511.3" cy="378.4" r="2.5"/>
	<g>
		<path class="st5" d="M498.4,377.1v2.6h-1.1v-2.6h-2.6v-1.2h2.6v-2.6h1.1v2.6h2.6v1.2H498.4z"/>
	</g>
	<circle class="st5" cx="871.5" cy="432.8" r="2.5"/>
	<g>
		<path class="st5" d="M862.4,418.8v2.6h-1.1v-2.6h-2.6v-1.2h2.6v-2.6h1.1v2.6h2.6v1.2H862.4z"/>
	</g>
	<g>
		<path class="st5" d="M843.4,254.5v2.6h-1.1v-2.6h-2.6v-1.2h2.6v-2.6h1.1v2.6h2.6v1.2H843.4z"/>
	</g>
	<circle class="st7" cx="513.7" cy="401.1" r="3.9"/>
	<line class="st10" x1="462" y1="458.1" x2="874" y2="458.1"/>
</g>
<rect y="91.8" class="st28" width="254.4" height="214.2"/>
<rect x="16.4" y="257.6" class="st29" width="78.8" height="33.6"/>
<rect x="282.3" y="103.3" class="st28" width="146.9" height="202.7"/>
<rect x="327.7" y="103.3" class="st26" width="5.2" height="202.7"/>
<rect x="92.5" y="91.8" class="st26" width="4.6" height="214.2"/>
<g>
	<path class="st4" d="M16.4,124.1V198h110v-73.9H16.4z M23.3,131h96.2v22.5l-7.4-1.4l-7.2-8.2l-8,11.6l-19.5,7.6l-11.6-5l-7.1,5
		L46,161l-21.2,30.1h-1.5V131z"/>
</g>
<rect x="95.2" y="51.6" class="st28" width="234.7" height="254.4"/>
<circle class="st4" cx="166.2" cy="116" r="39"/>
<g>
	<path class="st4" d="M232.3,109c0,2.2-1.3,3.5-3.4,3.5c-1.3,0-2.4-0.6-3.2-1.6l0.9-1.4c0.7,0.8,1.6,1.2,2.3,1.2
		c1,0,1.6-0.6,1.6-1.7V103h-3.8v-1.7h5.7V109z"/>
	<path class="st4" d="M239.8,111.3c-0.6,0.7-1.6,1.1-2.8,1.1c-1.8,0-2.9-1.1-2.9-2.6c0-1.5,1.1-2.5,3.2-2.5h2.5v-0.3
		c0-1.1-0.7-1.7-2-1.7c-0.8,0-1.6,0.3-2.5,0.8l-0.7-1.3c1.2-0.7,2-1.1,3.6-1.1c2.1,0,3.4,1.1,3.4,2.9l0,5.5h-1.8V111.3z
		 M239.8,109.4v-0.8h-2.3c-1.2,0-1.7,0.3-1.7,1.1c0,0.8,0.6,1.2,1.6,1.2C238.7,111,239.7,110.3,239.8,109.4z"/>
	<path class="st4" d="M252,107.1v5.2h-1.8v-4.7c0-1.3-0.8-2-2-2c-1.4,0-2.2,1-2.4,2.3v4.4H244V104h1.8v1.6c0.6-1.2,1.7-1.7,3.1-1.7
		C250.8,103.9,252,105.2,252,107.1z"/>
	<path class="st4" d="M261.8,108.9h-6.3c0.3,1.3,1.3,2.1,2.6,2.1c0.9,0,1.7-0.3,2.4-1l1,1c-0.8,0.9-2,1.4-3.5,1.4
		c-2.6,0-4.3-1.7-4.3-4.2c0-2.5,1.7-4.2,4.2-4.3C260.8,103.9,262,105.8,261.8,108.9z M260.2,107.5c-0.1-1.3-1-2.2-2.3-2.2
		c-1.3,0-2.2,0.8-2.4,2.2H260.2z"/>
	<path class="st4" d="M272.3,101.4c3.3,0,5.7,2.3,5.7,5.5c0,3.2-2.4,5.5-5.7,5.5h-4.5v-11H272.3z M269.7,110.7h2.7
		c2.1,0,3.8-1.6,3.8-3.8c0-2.2-1.7-3.8-3.8-3.8h-2.6V110.7z"/>
	<path class="st4" d="M287.8,108.2c0,2.5-1.8,4.2-4.3,4.2c-2.6,0-4.4-1.7-4.4-4.2c0-2.5,1.8-4.2,4.4-4.2
		C286,103.9,287.8,105.6,287.8,108.2z M280.9,108.2c0,1.6,1.1,2.7,2.6,2.7c1.5,0,2.5-1.1,2.5-2.7c0-1.6-1.1-2.7-2.5-2.7
		C281.9,105.5,280.9,106.6,280.9,108.2z"/>
	<path class="st4" d="M297,108.9h-6.3c0.3,1.3,1.3,2.1,2.6,2.1c0.9,0,1.7-0.3,2.4-1l1,1c-0.8,0.9-2,1.4-3.5,1.4
		c-2.6,0-4.3-1.7-4.3-4.2c0-2.5,1.7-4.2,4.2-4.3C296,103.9,297.2,105.8,297,108.9z M295.4,107.5c-0.1-1.3-1-2.2-2.3-2.2
		c-1.3,0-2.2,0.8-2.4,2.2H295.4z"/>
</g>
<text transform="matrix(1 0 0 1 226.4688 134.0249)" class="st4 st30 st31">3rd Grader</text>
<g>
	<rect x="127.2" y="171.4" class="st27" width="169.9" height="5.7"/>
	<rect x="127.2" y="181.5" class="st27" width="169.9" height="5.7"/>
	<rect x="127.2" y="192.8" class="st27" width="169.9" height="5.7"/>
</g>
<rect x="127.2" y="202.6" class="st27" width="169.9" height="5.7"/>
<rect x="127.2" y="212.7" class="st27" width="169.9" height="5.7"/>
<g>
	<rect x="329.9" y="183.7" class="st4" width="83.7" height="5.7"/>
	<rect x="329.9" y="193.8" class="st4" width="83.7" height="5.7"/>
	<rect x="329.9" y="205.1" class="st4" width="83.7" height="5.7"/>
</g>
<g>
	<rect x="329.9" y="214.9" class="st4" width="83.7" height="5.7"/>
	<rect x="329.9" y="225" class="st4" width="83.7" height="5.7"/>
	<rect x="329.9" y="236.3" class="st4" width="83.7" height="5.7"/>
</g>
<g>
	<rect x="16.4" y="210" class="st26" width="78.8" height="4"/>
	<rect x="16.4" y="217" class="st26" width="78.8" height="4"/>
	<rect x="16.4" y="224.9" class="st26" width="78.8" height="4"/>
</g>
<g>
	<rect x="16.4" y="231.3" class="st26" width="78.8" height="4"/>
	<rect x="16.4" y="238.3" class="st26" width="78.8" height="4"/>
	<rect x="16.4" y="246.2" class="st26" width="78.8" height="4"/>
</g>
<rect x="135.4" y="241.2" class="st4" width="4.9" height="42.7"/>
<rect x="140.3" y="255.1" class="st32" width="4.9" height="28.7"/>
<rect x="145.2" y="269.1" class="st5" width="4.9" height="14.8"/>
<rect x="171.1" y="265" class="st4" width="4.9" height="18.9"/>
<rect x="176" y="230.5" class="st32" width="4.9" height="53.3"/>
<rect x="180.9" y="269.1" class="st5" width="4.9" height="14.8"/>
<rect x="206.8" y="250.2" class="st4" width="4.9" height="33.6"/>
<rect x="211.7" y="259.2" class="st32" width="4.9" height="24.6"/>
<rect x="216.6" y="237.1" class="st5" width="4.9" height="46.8"/>
<rect x="242.4" y="269.1" class="st4" width="4.9" height="14.8"/>
<rect x="247.4" y="259.2" class="st32" width="4.9" height="24.6"/>
<rect x="252.3" y="274" class="st5" width="4.9" height="9.8"/>
<rect x="278.1" y="245.3" class="st4" width="4.9" height="38.6"/>
<rect x="283.1" y="259.2" class="st32" width="4.9" height="24.6"/>
<rect x="288" y="274" class="st5" width="4.9" height="9.8"/>
<g>
	<path class="st19" d="M356.9,162.9l0.8,4.9l-3,1.9l-3.2-22.1l3-1.9l18.4,12.6l-3.1,1.9l-4.1-2.9L356.9,162.9z M354.8,149.9l1.5,9.7
		l6.5-4.1L354.8,149.9z"/>
	<path class="st19" d="M375.5,146.8l2.7,4.3l-1.9,1.2l-2.7-4.3l-4.4,2.7l-1.2-2l4.4-2.7l-2.7-4.3l1.9-1.2l2.7,4.3l4.3-2.7l1.2,2
		L375.5,146.8z"/>
</g>
<path class="st4" d="M295.8,291.2H130.1c-0.7,0-1.2-0.6-1.2-1.2l0,0c0-0.7,0.6-1.2,1.2-1.2h165.7c0.7,0,1.2,0.6,1.2,1.2l0,0
	C297,290.7,296.5,291.2,295.8,291.2z"/>
<path class="st27" d="M153.7,140.9c0.1,0.6,2.8,1.6,2.8-1.6c0-0.1,0-0.1,0-0.1c2.9,2.7,6.1,4.1,9.6,4.1c3.4,0,6.7-1.4,9.6-4.1
	c0,0.1,0,0.1,0,0.1c0,3.2,3.3,3.5,2.3,3.4c0.1-0.2,0.1-0.4,0.2-0.6c10.3-4.3,17.5-14.5,17.5-26.3c0-15.7-12.7-28.5-28.5-28.5
	s-28.5,12.7-28.5,28.5C138.7,126.7,144.8,136.1,153.7,140.9z"/>
<path class="st1" d="M154.7,111.9l3.2-9.8c0,0,3,9.1,6.2,10.1l-1.5-5.9c0,0,3.2,4.9,6.1,6.2c4.3,1.9,12.3,2,15,2
	c-0.1,1.3-0.2,2.7-0.5,4.1c-2.7,13.4-9.4,19.6-16.6,19.6s-13.8-6.2-16.6-19.6c-0.3-1.8-0.5-3.5-0.5-5.1L154.7,111.9z"/>
</svg>
