<?xml version="1.0" encoding="utf-8"?>
<!-- Generator: Adobe Illustrator 21.0.2, SVG Export Plug-In . SVG Version: 6.00 Build 0)  -->
<svg version="1.1" id="Layer_1" xmlns="http://www.w3.org/2000/svg" xmlns:xlink="http://www.w3.org/1999/xlink" x="0px" y="0px"
	 viewBox="0 0 100 100" style="enable-background:new 0 0 100 100;" xml:space="preserve">
<style type="text/css">
	.st0{fill:#FFFFFF;}
</style>
<path class="st0" d="M5.2,42.7c1.3,8.7,8.7,14.9,17.1,15.3c-2.1,7.8-7.2,10.9-13.4,12.7c-0.6,0.2-0.5,0.8-0.5,0.8l1,6.2
	c0,0,0.1,0.5,0.9,0.4c21.4-2.4,35.9-18.7,33.2-38.5C41,25.9,30.3,20.6,20.4,22C10.5,23.6,3.7,32.8,5.2,42.7L5.2,42.7z M73.5,58
	c-2,7.8-7.3,10.9-13.4,12.7c-0.6,0.2-0.5,0.8-0.5,0.8l0.9,6.2c0,0,0.1,0.5,0.9,0.4c21.5-2.4,35.8-18.7,33.3-38.5
	c-2.6-13.7-13.4-19-23.2-17.6c-9.9,1.6-16.7,10.8-15.1,20.7C57.7,51.5,65,57.7,73.5,58z"/>
</svg>
