<?xml version="1.0" encoding="utf-8"?>
<!-- Generator: Adobe Illustrator 21.0.2, SVG Export Plug-In . SVG Version: 6.00 Build 0)  -->
<svg version="1.1" id="Layer_1" xmlns="http://www.w3.org/2000/svg" xmlns:xlink="http://www.w3.org/1999/xlink" x="0px" y="0px"
	 viewBox="0 0 430 306" style="enable-background:new 0 0 430 306;" xml:space="preserve">
<style type="text/css">
	.st0{opacity:0.36;}
	.st1{fill:#CFDEF0;}
	.st2{fill:#FFFFFF;stroke:#565C6F;stroke-width:0.75;stroke-miterlimit:10;}
	.st3{opacity:0.29;fill:#F9DEAC;}
	.st4{fill:#565C6F;}
	.st5{fill:#F9DEAC;}
	.st6{opacity:0.36;fill:#F9DEAC;}
	.st7{fill:none;stroke:#CFDEF0;stroke-miterlimit:10;}
	.st8{fill:none;stroke:#F9DEAC;stroke-miterlimit:10;}
	.st9{fill:#FFFFFF;stroke:#565C6F;stroke-width:1.5;stroke-miterlimit:10;}
	.st10{fill:none;stroke:#565C6F;stroke-width:2;stroke-miterlimit:10;}
	.st11{fill:#FFFFFF;stroke:#565C6F;stroke-width:2;stroke-miterlimit:10;}
	.st12{fill:#FFFFFF;stroke:#565C6F;stroke-width:3;stroke-miterlimit:10;}
	.st13{fill:none;stroke:#565C6F;stroke-miterlimit:10;}
	.st14{fill:#C1272D;}
	.st15{fill:none;stroke:#565C6F;stroke-width:3;stroke-miterlimit:10;}
	.st16{fill:none;stroke:#F9DEAC;stroke-width:2;stroke-miterlimit:10;}
</style>
<g class="st0">
	<path class="st1" d="M245.6,27.7c-43.5,10.3-86,26.1-123,51.2s-68.1,59.9-84.3,101.5c-6.9,17.7-11.1,37.3-6.6,55.8
		c4.8,19.9,19.4,36.5,36.9,47s37.9,15.6,58.2,18.3c38.9,5.1,78.8,2,116.4-9.1c19.6-5.8,38.7-13.8,55.6-25.4
		c27-18.6,47.1-45.6,64.7-73.4c17.3-27.3,33-56.7,36.8-88.8c3.8-32.1-6.4-67.5-32.4-86.6C344.2,1,311.7-0.1,283.7,8.4
		S231.1,33.7,207,50.3c-19.7,13.6-39.5,27.1-59.2,40.7"/>
</g>
<g>
	<path class="st2" d="M-317.7,77.3h-71.8c-3,0-5.5-2.5-5.5-5.5V-35.6c0-3,2.5-5.5,5.5-5.5h71.8c3,0,5.5,2.5,5.5,5.5V71.8
		C-312.2,74.8-314.6,77.3-317.7,77.3z"/>
	<path class="st3" d="M-351.1-23c-7.6,0-13.5,3-13.5,6.9v8.9c0,3.8,5.9,6.9,13.5,6.9c1.7,0,3.5-0.2,5.1-0.5c0.4-0.1,0.7-0.4,0.7-0.9
		v-4.6h6.9c0.5,0,0.9-0.4,0.9-0.9c0,0,0,0,0-0.1c0,0,0,0,0-0.1v-8.7c0,0,0,0,0-0.1c0,0,0-0.1,0-0.1C-337.7-20.1-343.6-23-351.1-23z
		 M-345.6-11.2"/>
	<g>
		<path class="st4" d="M-359.3,5.7l-0.4,0.4c-0.3-0.3-0.6-0.5-1-0.5c-0.7,0-1.3,0.6-1.3,1.3s0.6,1.3,1.3,1.3c0.4,0,0.7-0.2,1-0.4
			l0.4,0.4c-0.4,0.4-0.9,0.6-1.4,0.6c-1,0-1.9-0.8-1.9-1.8c0-1,0.8-1.8,1.9-1.8C-360.2,5.1-359.7,5.4-359.3,5.7z"/>
		<path class="st4" d="M-356.1,7.1v1.7h-0.6V7.2c0-0.4-0.2-0.7-0.7-0.7c-0.5,0-0.8,0.4-0.8,0.8v1.3h-0.6V4.9h0.6v1.6
			c0.2-0.4,0.5-0.6,1-0.6C-356.5,6-356.1,6.4-356.1,7.1z"/>
		<path class="st4" d="M-352.9,7.6h-2.1c0.1,0.4,0.4,0.7,0.8,0.7c0.3,0,0.6-0.1,0.8-0.3l0.3,0.3c-0.3,0.3-0.7,0.5-1.1,0.5
			c-0.8,0-1.4-0.6-1.4-1.4c0-0.8,0.6-1.4,1.4-1.4C-353.2,6-352.9,6.6-352.9,7.6z M-353.4,7.2c0-0.4-0.3-0.7-0.8-0.7
			c-0.4,0-0.7,0.3-0.8,0.7H-353.4z"/>
		<path class="st4" d="M-349.9,7.6h-2.1c0.1,0.4,0.4,0.7,0.8,0.7c0.3,0,0.6-0.1,0.8-0.3l0.3,0.3c-0.3,0.3-0.7,0.5-1.1,0.5
			c-0.8,0-1.4-0.6-1.4-1.4c0-0.8,0.6-1.4,1.4-1.4C-350.2,6-349.8,6.6-349.9,7.6z M-350.4,7.2c0-0.4-0.3-0.7-0.8-0.7
			c-0.4,0-0.7,0.3-0.8,0.7H-350.4z"/>
		<path class="st4" d="M-347.5,6.3l-0.2,0.4c-0.2-0.1-0.5-0.2-0.8-0.2c-0.2,0-0.4,0.1-0.4,0.3c0,0.5,1.4,0.2,1.4,1.2
			c0,0.6-0.5,0.8-1,0.8c-0.4,0-0.8-0.1-1.1-0.4l0.2-0.4c0.2,0.2,0.6,0.3,0.9,0.3c0.3,0,0.4-0.1,0.4-0.3c0-0.6-1.4-0.2-1.4-1.2
			c0-0.6,0.5-0.8,1-0.8C-348.1,6-347.8,6.1-347.5,6.3z"/>
		<path class="st4" d="M-344.5,7.6h-2.1c0.1,0.4,0.4,0.7,0.8,0.7c0.3,0,0.6-0.1,0.8-0.3l0.3,0.3c-0.3,0.3-0.7,0.5-1.1,0.5
			c-0.8,0-1.4-0.6-1.4-1.4c0-0.8,0.6-1.4,1.4-1.4C-344.8,6-344.4,6.6-344.5,7.6z M-345,7.2c0-0.4-0.3-0.7-0.8-0.7
			c-0.4,0-0.7,0.3-0.8,0.7H-345z"/>
	</g>
	<path class="st5" d="M-356.8,11.8l-0.4,0.4c-0.3-0.3-0.6-0.5-1-0.5c-0.7,0-1.3,0.6-1.3,1.3s0.6,1.3,1.3,1.3c0.4,0,0.7-0.2,1-0.4
		l0.4,0.4c-0.4,0.4-0.9,0.6-1.4,0.6c-1,0-1.9-0.8-1.9-1.8c0-1,0.8-1.8,1.9-1.8C-357.6,11.3-357.1,11.5-356.8,11.8z"/>
	<path class="st5" d="M-353.7,14.9v-1.5h-1.9v1.5h-0.6v-3.6h0.6v1.6h1.9v-1.6h0.6v3.6H-353.7z"/>
	<path class="st5" d="M-349.8,13.8h-2.1c0.1,0.4,0.4,0.7,0.8,0.7c0.3,0,0.6-0.1,0.8-0.3l0.3,0.3c-0.3,0.3-0.7,0.5-1.1,0.5
		c-0.8,0-1.4-0.6-1.4-1.4c0-0.8,0.6-1.4,1.4-1.4C-350.1,12.1-349.7,12.8-349.8,13.8z M-350.3,13.3c0-0.4-0.3-0.7-0.8-0.7
		c-0.4,0-0.7,0.3-0.8,0.7H-350.3z"/>
	<path class="st5" d="M-348.7,14.4l1.6,0v0.5l-2.3,0v-0.4l1.6-1.8h-1.5v-0.5l2.2,0v0.4L-348.7,14.4z"/>
	<g>
		<path class="st4" d="M-356,46.2h-17.1c0.8,3.5,3.4,5.7,7,5.7c2.5,0,4.7-0.9,6.4-2.6l2.6,2.8c-2.2,2.4-5.4,3.8-9.3,3.8
			c-7,0-11.6-4.6-11.6-11.4c0-6.8,4.7-11.5,11.4-11.5C-358.6,32.8-355.4,38-356,46.2z M-360.2,42.6c-0.2-3.7-2.6-5.9-6.3-5.9
			c-3.6,0-6.1,2.3-6.6,5.9H-360.2z"/>
		<path class="st4" d="M-331,46.2h-17.1c0.8,3.5,3.4,5.7,7,5.7c2.5,0,4.7-0.9,6.4-2.6l2.6,2.8c-2.2,2.4-5.4,3.8-9.3,3.8
			c-7,0-11.6-4.6-11.6-11.4c0-6.8,4.7-11.5,11.4-11.5C-333.6,32.8-330.4,38-331,46.2z M-335.2,42.6c-0.2-3.7-2.6-5.9-6.3-5.9
			c-3.6,0-6.1,2.3-6.6,5.9H-335.2z"/>
	</g>
	<path class="st4" d="M-352.3-24.2c-7.6,0-13.5,3-13.5,6.9v8.9c0,3.8,5.9,6.9,13.5,6.9c1.7,0,3.5-0.2,5.1-0.5
		c0.4-0.1,0.7-0.4,0.7-0.9v-4.6h6.9c0.5,0,0.9-0.4,0.9-0.9c0,0,0,0,0-0.1c0,0,0,0,0-0.1v-8.7c0,0,0,0,0-0.1s0-0.1,0-0.1
		C-338.9-21.3-344.8-24.2-352.3-24.2z M-352.3-22.5c6.2,0,10.7,2.1,11.6,4.3h-11.6c-0.3,0-0.6,0.2-0.8,0.5c-0.1,0.3-0.1,0.7,0.1,0.9
		l3.9,4.4c-1.1,0.1-2.1,0.2-3.2,0.2c-7,0-11.8-2.6-11.8-5.2S-359.3-22.5-352.3-22.5z M-348.2-3.7c-1.3,0.2-2.6,0.3-4.1,0.3
		c-7,0-11.8-2.6-11.8-5.2V-14c2.3,2.1,6.7,3.5,11.8,3.5c1.4,0,2.8-0.1,4.1-0.3V-3.7z M-340.5-9.2h-6v-2.6c0-0.1,0-0.3-0.1-0.3
		c0,0,0,0,0,0c0,0,0-0.1-0.1-0.1c0,0,0,0,0,0l-3.7-4.1h9.9V-9.2z"/>
	<ellipse class="st6" cx="-226.9" cy="80.1" rx="196.7" ry="2.9"/>
	<g>
		<path class="st5" d="M-28.6,43.2v1.9h-0.8v-1.9h-2v-0.9h2v-1.9h0.8v1.9h1.9v0.9H-28.6z"/>
	</g>
	<circle class="st5" cx="-33.6" cy="53.1" r="2.3"/>
	<circle class="st5" cx="-205" cy="-150.6" r="2.3"/>
	<g>
		<path class="st5" d="M-223.7-139.2v2.3h-1v-2.3h-2.4v-1h2.4v-2.3h1v2.3h2.3v1H-223.7z"/>
	</g>
	<circle class="st7" cx="-219" cy="-156.4" r="3.5"/>
	<g>
		<path class="st5" d="M-413.5,18.5v2.4h-1v-2.4h-2.4v-1.1h2.4v-2.4h1v2.4h2.4v1.1H-413.5z"/>
	</g>
	<circle class="st5" cx="-408.5" cy="32.6" r="3.2"/>
	<circle class="st8" cx="-403.9" cy="9.7" r="2"/>
	<g>
		<path class="st5" d="M-33.2-137.4v1.9h-0.8v-1.9h-2v-0.9h2v-1.9h0.8v1.9h1.9v0.9H-33.2z"/>
	</g>
	<circle class="st7" cx="-26.7" cy="-142.5" r="2.3"/>
	<g>
		<path class="st1" d="M-334.7-85.7v1.9h-0.8v-1.9h-2v-0.9h2v-1.9h0.8v1.9h1.9v0.9H-334.7z"/>
	</g>
	<circle class="st5" cx="-339.7" cy="-75.8" r="2.3"/>
	<g>
		<path class="st9" d="M-201.7,77.2h-114.9c-5.8,0-10.5-4.7-10.5-10.5v-173.4c0-5.8,4.7-10.5,10.5-10.5h114.9
			c5.8,0,10.5,4.7,10.5,10.5V66.7C-191.2,72.5-195.9,77.2-201.7,77.2z"/>
		<g>
			<path class="st4" d="M-262.4,23.1c0,11.1-7.9,18.8-19.3,18.8c-11.5,0-19.3-7.6-19.3-18.8c0-11.2,7.9-18.8,19.3-18.8
				C-270.2,4.4-262.4,11.9-262.4,23.1z M-293,23.2c0,7.2,4.7,12,11.3,12c6.6,0,11.3-4.9,11.3-12c0-7.1-4.7-12-11.3-12
				C-288.3,11.2-293,16.1-293,23.2z"/>
			<path class="st4" d="M-231.9,37.1c-2.6,3.3-6.9,4.9-12.2,4.9c-8,0-13-4.9-13-11.5c0-6.7,5.1-11.1,14-11.1h11.2v-1.1
				c0-4.7-3-7.4-8.8-7.4c-3.5,0-7.2,1.3-10.9,3.8l-3.3-5.6c5.1-3.1,8.9-4.7,15.9-4.7c9.5,0,14.9,4.9,14.9,13l0.1,24.3h-7.9V37.1z
				 M-231.9,28.6v-3.4h-10c-5.2,0-7.6,1.4-7.6,4.9c0,3.3,2.7,5.5,7.2,5.5C-236.7,35.6-232.3,32.6-231.9,28.6z"/>
		</g>
		<path class="st4" d="M-267.6-41.9c1.2,0,2,0.6,2,1.5c0,0.7-0.4,1.2-1,1.3c0.8,0.1,1.3,0.7,1.3,1.5c0,1-0.8,1.6-2.1,1.6h-2.6v-5.9
			H-267.6z M-269.1-39.4h1.5c0.6,0,1-0.3,1-0.8c0-0.5-0.4-0.8-1-0.8h-1.5V-39.4z M-269.1-36.9h1.5c0.8,0,1.2-0.3,1.2-0.9
			c0-0.5-0.5-0.8-1.2-0.8h-1.5V-36.9z"/>
		<path class="st4" d="M-260-38.2c0,1.3-0.9,2.3-2.3,2.3c-1.4,0-2.3-0.9-2.3-2.3c0-1.4,0.9-2.3,2.3-2.3C-261-40.5-260-39.6-260-38.2
			z M-263.7-38.2c0,0.9,0.6,1.5,1.4,1.5c0.8,0,1.4-0.6,1.4-1.5c0-0.9-0.6-1.4-1.4-1.4C-263.1-39.7-263.7-39.1-263.7-38.2z"/>
		<path class="st4" d="M-256.3-36.5c-0.3,0.4-0.8,0.6-1.5,0.6c-1,0-1.6-0.6-1.6-1.4c0-0.8,0.6-1.3,1.7-1.3h1.4v-0.1
			c0-0.6-0.4-0.9-1.1-0.9c-0.4,0-0.9,0.2-1.3,0.5l-0.4-0.7c0.6-0.4,1.1-0.6,1.9-0.6c1.2,0,1.8,0.6,1.8,1.6l0,2.9h-0.9V-36.5z
			 M-256.3-37.6V-38h-1.2c-0.6,0-0.9,0.2-0.9,0.6c0,0.4,0.3,0.7,0.9,0.7C-256.9-36.7-256.4-37.1-256.3-37.6z"/>
		<path class="st4" d="M-251.5-36.3c-0.4,0.2-0.7,0.3-1.1,0.3c-0.7,0-1.3-0.4-1.3-1.3v-2.3h-0.6v-0.7h0.6v-1.2h1v1.2h1.3v0.7h-1.3
			v2.1c0,0.5,0.2,0.6,0.5,0.6c0.2,0,0.4-0.1,0.7-0.2L-251.5-36.3z"/>
		<path class="st5" d="M-262.9-28.1c0,1.3-0.8,2.3-2.1,2.3c-0.7,0-1.3-0.3-1.6-0.8v0.8h-1v-6.2h1v2.5c0.3-0.5,0.9-0.8,1.6-0.8
			C-263.8-30.4-262.9-29.5-262.9-28.1z M-263.9-28.1c0-0.8-0.6-1.4-1.4-1.4c-0.8,0-1.4,0.6-1.4,1.4c0,0.9,0.6,1.5,1.4,1.5
			C-264.5-26.7-263.9-27.3-263.9-28.1z"/>
		<path class="st5" d="M-257.7-28.1c0,1.3-0.9,2.3-2.3,2.3c-1.4,0-2.3-0.9-2.3-2.3c0-1.4,0.9-2.3,2.3-2.3
			C-258.6-30.4-257.7-29.5-257.7-28.1z M-261.4-28.1c0,0.9,0.6,1.5,1.4,1.5c0.8,0,1.4-0.6,1.4-1.5c0-0.9-0.6-1.4-1.4-1.4
			C-260.8-29.6-261.4-29-261.4-28.1z"/>
		<path class="st5" d="M-254.1-26.2c-0.4,0.2-0.7,0.3-1.1,0.3c-0.7,0-1.3-0.4-1.3-1.3v-2.3h-0.6v-0.7h0.6v-1.2h1v1.2h1.3v0.7h-1.3
			v2.1c0,0.5,0.2,0.6,0.5,0.6c0.2,0,0.4-0.1,0.7-0.2L-254.1-26.2z"/>
		<ellipse class="st6" cx="-261.4" cy="-49.3" rx="28.8" ry="1.2"/>
		<g>
			<polygon class="st4" points="-239.4,-49.9 -282.9,-49.9 -289.9,-61.5 -232.4,-61.5 			"/>
			<polygon class="st4" points="-257,-63.4 -256.7,-63.4 -241.5,-63.4 -249.1,-76.6 -256.7,-89.8 -257,-89.4 			"/>
			<polygon class="st4" points="-259.3,-63.4 -259.6,-63.4 -280.5,-63.4 -270,-81.4 -259.6,-99.5 -259.3,-99 			"/>
		</g>
	</g>
	<line class="st10" x1="-434" y1="77.2" x2="-22.1" y2="77.2"/>
	<path class="st11" d="M-53.5,77.2h-136.9c-6.6,0-12-5.4-12-12v-206.1c0-6.6,5.4-12,12-12h136.9c6.6,0,12,5.4,12,12V65.2
		C-41.5,71.9-46.9,77.2-53.5,77.2z"/>
	<path class="st4" d="M-133.2-62.9c1.8,0,2.8,0.9,2.8,2.4c0,1.6-1,2.5-2.8,2.5h-1.6v2.1h-1.2v-7H-133.2z M-134.8-59.1h1.6
		c1.1,0,1.7-0.5,1.7-1.4c0-0.9-0.6-1.4-1.7-1.4h-1.6V-59.1z"/>
	<path class="st4" d="M-124.2-59.2v3.3h-1.1v-3c0-0.8-0.5-1.3-1.3-1.3c-0.9,0-1.5,0.7-1.5,1.7v2.6h-1.1v-7.4h1.1v3.1
		c0.4-0.7,1.1-1.1,2-1.1C-124.9-61.3-124.2-60.5-124.2-59.2z"/>
	<path class="st4" d="M-117.6-58.6c0,1.6-1.1,2.7-2.8,2.7c-1.6,0-2.8-1.1-2.8-2.7c0-1.6,1.1-2.7,2.8-2.7
		C-118.8-61.3-117.6-60.2-117.6-58.6z M-122-58.6c0,1,0.7,1.7,1.6,1.7c0.9,0,1.6-0.7,1.6-1.7c0-1-0.7-1.7-1.6-1.7
		C-121.4-60.3-122-59.6-122-58.6z"/>
	<path class="st4" d="M-113.5-56.3c-0.4,0.2-0.9,0.4-1.3,0.4c-0.8,0-1.5-0.5-1.5-1.5v-2.7h-0.7V-61h0.7v-1.5h1.1v1.5h1.6v0.9h-1.6
		v2.5c0,0.5,0.2,0.7,0.6,0.7c0.2,0,0.5-0.1,0.8-0.2L-113.5-56.3z"/>
	<path class="st4" d="M-107.4-58.6c0,1.6-1.1,2.7-2.8,2.7c-1.6,0-2.8-1.1-2.8-2.7c0-1.6,1.1-2.7,2.8-2.7
		C-108.6-61.3-107.4-60.2-107.4-58.6z M-111.8-58.6c0,1,0.7,1.7,1.6,1.7c0.9,0,1.6-0.7,1.6-1.7c0-1-0.7-1.7-1.6-1.7
		C-111.1-60.3-111.8-59.6-111.8-58.6z"/>
	<path class="st5" d="M-129.6-49.7v0.6h1.4v0.9h-1.4v4.2h-1.1v-4.2h-0.7v-0.9h0.7v-0.5c0-1.2,0.9-1.8,1.8-1.8c0.4,0,0.9,0.1,1.2,0.4
		l-0.4,0.9c-0.2-0.2-0.5-0.2-0.7-0.2C-129.3-50.4-129.6-50.2-129.6-49.7z"/>
	<path class="st5" d="M-122.7-46.6c0,1.6-1.1,2.7-2.8,2.7c-1.6,0-2.8-1.1-2.8-2.7c0-1.6,1.1-2.7,2.8-2.7
		C-123.8-49.3-122.7-48.2-122.7-46.6z M-127-46.6c0,1,0.7,1.7,1.6,1.7c0.9,0,1.6-0.7,1.6-1.7c0-1-0.7-1.7-1.6-1.7
		C-126.4-48.3-127-47.6-127-46.6z"/>
	<path class="st5" d="M-118.5-44.3c-0.4,0.2-0.9,0.4-1.3,0.4c-0.8,0-1.5-0.5-1.5-1.5v-2.7h-0.7v-0.9h0.7v-1.5h1.1v1.5h1.6v0.9h-1.6
		v2.5c0,0.5,0.2,0.7,0.6,0.7c0.2,0,0.5-0.1,0.8-0.2L-118.5-44.3z"/>
	<path class="st5" d="M-112.5-46.6c0,1.6-1.1,2.7-2.8,2.7c-1.6,0-2.8-1.1-2.8-2.7c0-1.6,1.1-2.7,2.8-2.7
		C-113.6-49.3-112.5-48.2-112.5-46.6z M-116.8-46.6c0,1,0.7,1.7,1.6,1.7c0.9,0,1.6-0.7,1.6-1.7c0-1-0.7-1.7-1.6-1.7
		C-116.2-48.3-116.8-47.6-116.8-46.6z"/>
	<g>
		<path class="st4" d="M-123.7,12.8c0,13.6-8.5,22.9-21.5,22.9c-7.3,0-12.7-2.9-16.1-8.2V52h-9.8v-62.1h9.8v7.9
			c3.3-5.3,8.8-8.2,15.9-8.2C-132.5-10.5-123.7-1.1-123.7,12.8z M-133.6,12.5c0-8.5-5.7-14.7-13.9-14.7s-13.8,6.2-13.8,14.7
			c0,8.8,5.7,14.9,13.8,14.9S-133.6,21.2-133.6,12.5z"/>
		<path class="st4" d="M-69.4,7.1v28.3h-9.8V9.8c0-6.8-4.1-11-10.9-11c-8.1,0.1-13,6.2-13,14.2v22.4h-9.8v-63.4h9.8v26.8
			c3.2-6.4,9.1-9.2,16.8-9.2C-75.7-10.5-69.4-3.8-69.4,7.1z"/>
	</g>
	<g>
		<path class="st5" d="M-157-129.6v56.1h72.8v-56.1L-157-129.6L-157-129.6z"/>
	</g>
	<g>
		<path class="st4" d="M-157-129.6v56.1h72.8v-56.1L-157-129.6L-157-129.6z M-88.4-125.5v24.4l-17.3-13.2l-19.1,18.8l-13.4-7.5
			l-14.6,11.6v-34.2H-88.4z"/>
		<circle class="st4" cx="-142.1" cy="-114.7" r="5.2"/>
	</g>
</g>
<g>
	<rect x="96.5" y="64.6" class="st12" width="169" height="224.3"/>
	<g>
		<rect x="118.4" y="86.6" class="st1" width="126.2" height="13.6"/>
		<rect x="118.4" y="117.8" class="st1" width="126.2" height="13.6"/>
		<rect x="118.4" y="195" class="st1" width="126.2" height="13.6"/>
		<rect x="118.4" y="223.2" class="st1" width="126.2" height="13.6"/>
		<rect x="118.4" y="250.3" class="st1" width="126.2" height="13.6"/>
		<rect x="185.2" y="146" class="st1" width="59.5" height="34.4"/>
		<rect x="118.4" y="146" class="st1" width="59.5" height="34.4"/>
	</g>
	<polygon class="st13" points="121.1,208.1 330.7,176.8 268.1,123.2 212.8,38.1 	"/>
	<circle class="st12" cx="287.4" cy="93.9" r="93.4"/>
	<g>
		<path class="st14" d="M219.9,69.7c3.5,0,6,2.5,6,5.8c0,3.4-2.6,5.8-6.1,5.8h-4.7V69.7H219.9z M217.1,79.6h2.9c2.3,0,4-1.7,4-4.1
			c0-2.4-1.8-4.1-4.1-4.1h-2.8V79.6z"/>
		<path class="st14" d="M236.4,76.9c0,2.7-1.9,4.5-4.6,4.5c-2.8,0-4.6-1.8-4.6-4.5c0-2.7,1.9-4.5,4.6-4.5
			C234.5,72.4,236.4,74.2,236.4,76.9z M229,76.9c0,1.7,1.1,2.9,2.7,2.9c1.6,0,2.7-1.2,2.7-2.9c0-1.7-1.1-2.9-2.7-2.9
			C230.1,74,229,75.2,229,76.9z"/>
	</g>
	<g>
		<path class="st14" d="M328.5,80.8c-0.7,0.4-1.4,0.7-2.2,0.7c-1.3,0-2.5-0.8-2.5-2.6v-4.6h-1.3v-1.4h1.3v-2.4h1.9v2.4h2.6v1.4h-2.6
			v4.3c0,0.9,0.4,1.2,1,1.2c0.4,0,0.8-0.1,1.3-0.4L328.5,80.8z"/>
		<path class="st14" d="M338.6,76.9c0,2.7-1.9,4.5-4.6,4.5c-2.8,0-4.6-1.8-4.6-4.5c0-2.7,1.9-4.5,4.6-4.5
			C336.7,72.4,338.6,74.2,338.6,76.9z M331.2,76.9c0,1.7,1.1,2.9,2.7,2.9c1.6,0,2.7-1.2,2.7-2.9c0-1.7-1.1-2.9-2.7-2.9
			C332.3,74,331.2,75.2,331.2,76.9z"/>
	</g>
	<path class="st14" d="M352.9,80.5c0,2.6-1.8,4.2-4.6,4.2c-1.4,0-2.6-0.4-3.7-1.2l0.8-1.4c0.8,0.6,1.7,1,2.8,1c1.7,0,2.8-1,2.8-2.5
		v-1.1c-0.6,1-1.6,1.5-2.9,1.5c-2.4,0-4-1.7-4-4.3c0-2.5,1.6-4.2,3.9-4.2c1.4,0,2.4,0.5,3,1.5v-1.4h1.9V80.5z M351,76.7
		c0-1.6-1.1-2.7-2.6-2.7c-1.5,0-2.6,1.1-2.6,2.7c0,1.6,1.1,2.7,2.6,2.7C349.9,79.4,351,78.3,351,76.7z"/>
	<path class="st14" d="M364,76.9c0,2.7-1.9,4.5-4.6,4.5c-2.8,0-4.6-1.8-4.6-4.5c0-2.7,1.9-4.5,4.6-4.5C362.1,72.4,364,74.2,364,76.9
		z M356.6,76.9c0,1.7,1.1,2.9,2.7,2.9c1.6,0,2.7-1.2,2.7-2.9c0-1.7-1.1-2.9-2.7-2.9C357.8,74,356.6,75.2,356.6,76.9z"/>
	<g>
		<path class="st14" d="M210.2,100.8c-0.7,0.4-1.4,0.7-2.2,0.7c-1.3,0-2.5-0.8-2.5-2.6v-4.6h-1.3v-1.4h1.3v-2.4h1.9v2.4h2.6v1.4
			h-2.6v4.3c0,0.9,0.4,1.2,1,1.2c0.4,0,0.8-0.1,1.3-0.4L210.2,100.8z"/>
		<path class="st14" d="M220.3,96.9c0,2.7-1.9,4.5-4.6,4.5c-2.8,0-4.6-1.8-4.6-4.5c0-2.7,1.9-4.5,4.6-4.5
			C218.4,92.4,220.3,94.2,220.3,96.9z M213,96.9c0,1.7,1.1,2.9,2.7,2.9c1.6,0,2.7-1.2,2.7-2.9c0-1.7-1.1-2.9-2.7-2.9
			C214.1,94.1,213,95.2,213,96.9z"/>
	</g>
	<path class="st14" d="M231.6,100.8c-0.7,0.4-1.4,0.7-2.2,0.7c-1.3,0-2.5-0.8-2.5-2.6v-4.6h-1.3v-1.4h1.3v-2.4h1.9v2.4h2.6v1.4h-2.6
		v4.3c0,0.9,0.4,1.2,1,1.2c0.4,0,0.8-0.1,1.3-0.4L231.6,100.8z"/>
	<path class="st14" d="M242,95.8v5.5h-1.9v-5c0-1.3-0.8-2.2-2.1-2.2c-1.6,0-2.5,1.2-2.5,2.8v4.4h-1.9V89h1.9v5.2
		c0.6-1.3,1.8-1.8,3.3-1.8C240.8,92.4,242,93.7,242,95.8z"/>
	<path class="st14" d="M252.4,97.7h-6.7c0.3,1.4,1.4,2.2,2.8,2.2c1,0,1.9-0.4,2.5-1l1,1.1c-0.9,1-2.1,1.5-3.7,1.5
		c-2.7,0-4.5-1.8-4.5-4.5c0-2.7,1.9-4.5,4.5-4.5C251.3,92.4,252.6,94.5,252.4,97.7z M250.7,96.3c-0.1-1.4-1-2.3-2.5-2.3
		c-1.4,0-2.4,0.9-2.6,2.3H250.7z"/>
	<g>
		<path class="st4" d="M246.2,82.6c-0.6,1.4-1.6,2.1-2.9,2.1c-0.8,0-1.4-0.2-2.1-0.8l0.8-1.5c0.4,0.3,0.8,0.4,1.2,0.4
			c0.6,0,1.1-0.3,1.4-1l0.3-0.7l-3.7-8.7h2l2.7,6.7l2.5-6.7h1.9L246.2,82.6z"/>
		<path class="st4" d="M259.6,76.9c0,2.7-1.9,4.5-4.6,4.5c-2.8,0-4.6-1.8-4.6-4.5c0-2.7,1.9-4.5,4.6-4.5
			C257.8,72.4,259.6,74.2,259.6,76.9z M252.3,76.9c0,1.7,1.1,2.9,2.7,2.9c1.6,0,2.7-1.2,2.7-2.9c0-1.7-1.1-2.9-2.7-2.9
			C253.4,74,252.3,75.2,252.3,76.9z"/>
		<path class="st4" d="M269.7,81.3h-1.9v-1.7c-0.6,1.2-1.7,1.8-3.2,1.8c-2,0-3.3-1.3-3.3-3.4v-5.5h1.9v5c0,1.3,0.8,2.2,2.1,2.2
			c1.5,0,2.4-1.2,2.4-2.8v-4.4h1.9V81.3z"/>
		<path class="st4" d="M285.2,81.3l-2.3-6.6l-2.3,6.6h-2l-3.3-8.9h2l2.3,7l2.2-7h2l2.3,7l2.3-7h2l-3.2,8.9H285.2z"/>
		<path class="st4" d="M296.8,80.3c-0.6,0.8-1.7,1.2-2.9,1.2c-1.9,0-3.1-1.2-3.1-2.8c0-1.6,1.2-2.7,3.4-2.7h2.7v-0.3
			c0-1.1-0.7-1.8-2.1-1.8c-0.9,0-1.7,0.3-2.6,0.9l-0.8-1.3c1.2-0.7,2.1-1.1,3.8-1.1c2.3,0,3.6,1.2,3.6,3.1l0,5.8h-1.9V80.3z
			 M296.8,78.2v-0.8h-2.4c-1.3,0-1.8,0.3-1.8,1.2c0,0.8,0.7,1.3,1.7,1.3C295.7,79.9,296.7,79.2,296.8,78.2z"/>
		<path class="st4" d="M309.8,75.8v5.5h-1.9v-5c0-1.3-0.8-2.2-2.1-2.2c-1.5,0-2.4,1-2.5,2.4v4.7h-1.9v-8.9h1.9v1.7
			c0.6-1.2,1.8-1.8,3.3-1.8C308.5,72.4,309.8,73.7,309.8,75.8z"/>
		<path class="st4" d="M317.4,80.8c-0.7,0.4-1.4,0.7-2.2,0.7c-1.3,0-2.5-0.8-2.5-2.6v-4.6h-1.3v-1.4h1.3v-2.4h1.9v2.4h2.6v1.4h-2.6
			v4.3c0,0.9,0.4,1.2,1,1.2c0.4,0,0.8-0.1,1.3-0.4L317.4,80.8z"/>
		<path class="st4" d="M260.4,99.8l5.2,0v1.6l-7.6,0v-1.3l5.1-6h-4.9v-1.6l7.3,0v1.3L260.4,99.8z"/>
		<path class="st4" d="M276,96.9c0,2.7-1.9,4.5-4.6,4.5c-2.8,0-4.6-1.8-4.6-4.5c0-2.7,1.9-4.5,4.6-4.5C274.1,92.4,276,94.2,276,96.9
			z M268.6,96.9c0,1.7,1.1,2.9,2.7,2.9c1.6,0,2.7-1.2,2.7-2.9c0-1.7-1.1-2.9-2.7-2.9C269.7,94.1,268.6,95.2,268.6,96.9z"/>
		<path class="st4" d="M286.4,96.9c0,2.7-1.9,4.5-4.6,4.5c-2.8,0-4.6-1.8-4.6-4.5c0-2.7,1.9-4.5,4.6-4.5
			C284.5,92.4,286.4,94.2,286.4,96.9z M279.1,96.9c0,1.7,1.1,2.9,2.7,2.9c1.6,0,2.7-1.2,2.7-2.9c0-1.7-1.1-2.9-2.7-2.9
			C280.2,94.1,279.1,95.2,279.1,96.9z"/>
		<path class="st4" d="M297.7,100.8c-0.7,0.4-1.4,0.7-2.2,0.7c-1.3,0-2.5-0.8-2.5-2.6v-4.6h-1.3v-1.4h1.3v-2.4h1.9v2.4h2.6v1.4H295
			v4.3c0,0.9,0.4,1.2,1,1.2c0.4,0,0.8-0.1,1.3-0.4L297.7,100.8z"/>
		<path class="st4" d="M307.8,96.9c0,2.7-1.9,4.5-4.6,4.5c-2.8,0-4.6-1.8-4.6-4.5c0-2.7,1.9-4.5,4.6-4.5
			C305.9,92.4,307.8,94.2,307.8,96.9z M300.5,96.9c0,1.7,1.1,2.9,2.7,2.9c1.6,0,2.7-1.2,2.7-2.9c0-1.7-1.1-2.9-2.7-2.9
			C301.6,94.1,300.5,95.2,300.5,96.9z"/>
		<path class="st4" d="M324.7,95.8v5.5h-1.9v-5c0-1.4-0.8-2.2-2.1-2.2c-1.5,0-2.4,1.2-2.4,2.8v4.4h-1.9v-5c0-1.4-0.8-2.2-2.1-2.2
			c-1.5,0-2.5,1.2-2.5,2.8v4.4h-1.9v-8.9h1.9v1.7c0.6-1.3,1.8-1.8,3.2-1.8c1.6,0,2.7,0.8,3.1,2.1c0.6-1.5,1.8-2.1,3.4-2.1
			C323.5,92.4,324.7,93.7,324.7,95.8z"/>
		<path class="st4" d="M335.7,96.9c0,2.7-1.9,4.5-4.6,4.5c-2.8,0-4.6-1.8-4.6-4.5c0-2.7,1.9-4.5,4.6-4.5
			C333.8,92.4,335.7,94.2,335.7,96.9z M328.3,96.9c0,1.7,1.1,2.9,2.7,2.9c1.6,0,2.7-1.2,2.7-2.9c0-1.7-1.1-2.9-2.7-2.9
			C329.4,94.1,328.3,95.2,328.3,96.9z"/>
		<path class="st4" d="M339.6,94.3c0.6-1.2,1.7-1.8,3.1-1.8v1.8c-1.8-0.1-2.9,1-3.1,2.5v4.6h-1.9v-8.9h1.9V94.3z"/>
		<path class="st4" d="M346.2,94.3c0.6-1.2,1.7-1.8,3.1-1.8v1.8c-1.8-0.1-2.9,1-3.1,2.5v4.6h-1.9v-8.9h1.9V94.3z"/>
		<path class="st4" d="M359.3,96.9c0,2.7-1.9,4.5-4.6,4.5c-2.8,0-4.6-1.8-4.6-4.5c0-2.7,1.9-4.5,4.6-4.5
			C357.4,92.4,359.3,94.2,359.3,96.9z M351.9,96.9c0,1.7,1.1,2.9,2.7,2.9c1.6,0,2.7-1.2,2.7-2.9c0-1.7-1.1-2.9-2.7-2.9
			C353,94.1,351.9,95.2,351.9,96.9z"/>
		<path class="st4" d="M369.3,101.4l-2.3-6.6l-2.3,6.6h-2l-3.3-8.9h2l2.3,7l2.2-7h2l2.3,7l2.3-7h2l-3.2,8.9H369.3z"/>
		<path class="st4" d="M245.7,120.3c-0.6,0.8-1.7,1.2-2.9,1.2c-1.9,0-3.1-1.2-3.1-2.8c0-1.6,1.2-2.7,3.4-2.7h2.7v-0.3
			c0-1.1-0.7-1.8-2.1-1.8c-0.9,0-1.7,0.3-2.6,0.9l-0.8-1.3c1.2-0.7,2.1-1.1,3.8-1.1c2.3,0,3.6,1.2,3.6,3.1l0,5.8h-1.9V120.3z
			 M245.6,118.3v-0.8h-2.4c-1.3,0-1.8,0.3-1.8,1.2c0,0.8,0.7,1.3,1.7,1.3C244.5,120,245.5,119.2,245.6,118.3z"/>
		<path class="st4" d="M252.4,111.8v1.1h2.3v1.4h-2.3v7.1h-1.9v-7.1h-1.2v-1.4h1.2V112c0-2.1,1.5-3.1,3.1-3.1c0.7,0,1.4,0.2,2,0.6
			l-0.7,1.5c-0.4-0.3-0.8-0.4-1.2-0.4C252.9,110.6,252.4,111,252.4,111.8z"/>
		<path class="st4" d="M261,120.8c-0.7,0.4-1.4,0.7-2.2,0.7c-1.3,0-2.5-0.8-2.5-2.6v-4.6h-1.3v-1.4h1.3v-2.4h1.9v2.4h2.6v1.4h-2.6
			v4.3c0,0.9,0.4,1.2,1,1.2c0.4,0,0.8-0.1,1.3-0.4L261,120.8z"/>
		<path class="st4" d="M270.5,117.7h-6.7c0.3,1.4,1.4,2.2,2.8,2.2c1,0,1.9-0.4,2.5-1l1,1.1c-0.9,1-2.1,1.5-3.7,1.5
			c-2.7,0-4.5-1.8-4.5-4.5c0-2.7,1.9-4.5,4.5-4.5C269.5,112.4,270.7,114.5,270.5,117.7z M268.8,116.3c-0.1-1.4-1-2.3-2.5-2.3
			c-1.4,0-2.4,0.9-2.6,2.3H268.8z"/>
		<path class="st4" d="M274.4,114.3c0.6-1.2,1.7-1.8,3.1-1.8v1.8c-1.8-0.1-2.9,1-3.1,2.5v4.6h-1.9v-8.9h1.9V114.3z"/>
		<path class="st4" d="M289.1,113.3l-0.7,1.4c-0.8-0.5-1.8-0.8-2.6-0.8c-0.8,0-1.3,0.3-1.3,0.9c0,1.6,4.7,0.8,4.7,4
			c0,1.8-1.6,2.6-3.4,2.6c-1.3,0-2.7-0.4-3.6-1.2l0.7-1.4c0.8,0.7,2,1.1,3,1.1c0.8,0,1.5-0.3,1.5-1c0-1.8-4.7-0.8-4.7-4
			c0-1.8,1.6-2.6,3.3-2.6C287.1,112.4,288.3,112.8,289.1,113.3z"/>
		<path class="st4" d="M298.5,113.9l-1.1,1.2c-0.6-0.6-1.5-1-2.5-1c-1.5,0-2.6,1.2-2.6,2.8c0,1.7,1.1,2.8,2.6,2.8
			c1.1,0,2-0.4,2.6-1.1l1.1,1.1c-0.8,1.1-2.1,1.7-3.8,1.7c-2.6,0-4.5-1.8-4.5-4.5c0-2.7,1.8-4.5,4.5-4.5
			C296.5,112.4,297.7,113,298.5,113.9z"/>
		<path class="st4" d="M309.2,115.9v5.5h-1.9v-5c0-1.3-0.8-2.2-2.1-2.2c-1.6,0-2.5,1.2-2.5,2.8v4.4h-1.9V109h1.9v5.2
			c0.6-1.3,1.8-1.8,3.3-1.8C308,112.4,309.2,113.7,309.2,115.9z"/>
		<path class="st4" d="M320.2,117c0,2.7-1.9,4.5-4.6,4.5c-2.8,0-4.6-1.8-4.6-4.5c0-2.7,1.9-4.5,4.6-4.5
			C318.3,112.4,320.2,114.3,320.2,117z M312.9,117c0,1.7,1.1,2.9,2.7,2.9c1.6,0,2.7-1.2,2.7-2.9c0-1.7-1.1-2.9-2.7-2.9
			C314,114.1,312.9,115.3,312.9,117z"/>
		<path class="st4" d="M330.7,117c0,2.7-1.9,4.5-4.6,4.5c-2.8,0-4.6-1.8-4.6-4.5c0-2.7,1.9-4.5,4.6-4.5
			C328.8,112.4,330.7,114.3,330.7,117z M323.3,117c0,1.7,1.1,2.9,2.7,2.9c1.6,0,2.7-1.2,2.7-2.9c0-1.7-1.1-2.9-2.7-2.9
			C324.4,114.1,323.3,115.3,323.3,117z"/>
		<path class="st4" d="M332.7,121.4V109h1.9v12.4H332.7z"/>
		<path class="st4" d="M336.2,113.1c0.1-2.1,1.4-3.3,3.5-3.3c2,0,3.3,1,3.3,2.8c0,2.6-2.6,2.8-2.6,5h-1.5c0-2.7,2.3-2.7,2.3-4.7
			c0-1-0.7-1.4-1.7-1.4c-1.1,0-1.7,0.6-1.8,1.7L336.2,113.1z M340.7,120.4c0,0.7-0.5,1.1-1.1,1.1c-0.6,0-1.1-0.5-1.1-1.1
			c0-0.6,0.5-1.1,1.1-1.1C340.2,119.3,340.7,119.8,340.7,120.4z"/>
	</g>
	<circle class="st5" cx="195.6" cy="43.8" r="2.1"/>
	<g>
		<path class="st5" d="M178.7,54.1v2.1h-0.9v-2.1h-2.1v-1h2.1v-2.1h0.9v2.1h2.1v1H178.7z"/>
	</g>
	<circle class="st8" cx="183" cy="38.5" r="3.2"/>
	<circle class="st5" cx="272.8" cy="229.5" r="2.1"/>
	<g>
		<path class="st5" d="M279.9,216.8v2.1H279v-2.1h-2.1v-1h2.1v-2.1h0.9v2.1h2.1v1H279.9z"/>
	</g>
	<circle class="st7" cx="274.8" cy="204.3" r="3.2"/>
	<circle class="st5" cx="351" cy="5.2" r="2.1"/>
	<g>
		<path class="st5" d="M357.1,17.6v2.1h-0.9v-2.1H354v-1h2.1v-2.1h0.9v2.1h2.1v1H357.1z"/>
	</g>
	<circle class="st5" cx="81.9" cy="260.8" r="2.1"/>
	<circle class="st8" cx="69.3" cy="255.5" r="3.2"/>
	<line class="st15" x1="53.8" y1="290" x2="309.3" y2="290"/>
	<line class="st16" x1="53.8" y1="291" x2="309.3" y2="291"/>
</g>
</svg>
