<?xml version="1.0" encoding="utf-8"?>
<!-- Generator: Adobe Illustrator 21.0.2, SVG Export Plug-In . SVG Version: 6.00 Build 0)  -->
<svg version="1.1" id="Layer_1" xmlns="http://www.w3.org/2000/svg" xmlns:xlink="http://www.w3.org/1999/xlink" x="0px" y="0px"
	 viewBox="0 0 639 517" style="enable-background:new 0 0 639 517;" xml:space="preserve">
<style type="text/css">
	.st0{opacity:0.91;}
	.st1{opacity:0.3;fill:none;stroke:#CFDEF0;stroke-width:0.5;stroke-miterlimit:10;}
	.st2{opacity:0.6;}
	.st3{fill:none;stroke:#CFDEF0;stroke-width:0.5;stroke-miterlimit:10;}
	.st4{fill:#FFFFFF;}
	.st5{fill:none;}
	.st6{opacity:0.5;}
	.st7{fill:#F9DEAC;}
	.st8{fill:#90DBE2;}
	.st9{fill:#FFFFFF;stroke:#565C6F;stroke-width:2;stroke-miterlimit:10;}
	.st10{fill:#565C6F;}
	.st11{fill:none;stroke:#565C6F;stroke-width:4;stroke-miterlimit:10;}
	.st12{fill:#FFFFFF;stroke:#565C6F;stroke-width:3;stroke-miterlimit:10;}
	.st13{opacity:0.17;fill:#7E9DCD;}
	.st14{fill:#CFDEF0;stroke:#565C6F;stroke-width:2;stroke-miterlimit:10;}
	.st15{opacity:0.85;}
	.st16{fill:#97AED6;}
	.st17{fill:#CFDEF0;}
	.st18{fill:#7E9DCD;}
	.st19{fill:#FBFCFF;}
	.st20{fill:#CFDEF0;stroke:#565C6F;stroke-miterlimit:10;}
	.st21{fill:#FFFFFF;stroke:#565C6F;stroke-miterlimit:10;}
</style>
<g>
	<g class="st0">
		<rect x="155.1" y="22.5" class="st1" width="69.2" height="24.1"/>
		<rect x="224.5" y="22.5" class="st1" width="69.2" height="24.1"/>
		<rect x="293.9" y="22.5" class="st1" width="69.2" height="24.1"/>
		<rect x="362.2" y="22.5" class="st1" width="69.2" height="24.1"/>
		<rect x="120.4" y="47.1" class="st1" width="69.2" height="24.1"/>
		<rect x="189.8" y="47.1" class="st1" width="69.2" height="24.1"/>
		<rect x="259.2" y="47.1" class="st1" width="69.2" height="24.1"/>
		<rect x="328.6" y="47.1" class="st1" width="69.2" height="24.1"/>
		<rect x="85.8" y="70.6" class="st1" width="69.2" height="24.1"/>
		<rect x="155.1" y="70.6" class="st1" width="69.2" height="24.1"/>
		<rect x="224.5" y="70.6" class="st1" width="69.2" height="24.1"/>
		<rect x="293.9" y="70.6" class="st1" width="69.2" height="24.1"/>
		<rect x="362.2" y="70.6" class="st1" width="69.2" height="24.1"/>
		<rect x="431.5" y="70.6" class="st1" width="69.2" height="24.1"/>
	</g>
	<g class="st2">
		<rect x="52.2" y="285.5" class="st3" width="69.2" height="24.1"/>
		<rect x="120.4" y="285.5" class="st3" width="69.2" height="24.1"/>
		<rect x="189.8" y="285.5" class="st3" width="69.2" height="24.1"/>
		<rect x="259.2" y="285.5" class="st3" width="69.2" height="24.1"/>
		<rect x="328.6" y="285.5" class="st3" width="69.2" height="24.1"/>
		<rect x="396.8" y="285.5" class="st3" width="69.2" height="24.1"/>
		<rect x="466.2" y="285.5" class="st3" width="69.2" height="24.1"/>
		<rect x="535.6" y="285.5" class="st3" width="69.2" height="24.1"/>
		<rect x="17.5" y="309" class="st3" width="69.2" height="24.1"/>
		<rect x="85.8" y="309" class="st3" width="69.2" height="24.1"/>
		<rect x="155.1" y="309" class="st3" width="69.2" height="24.1"/>
		<rect x="224.5" y="309" class="st3" width="69.2" height="24.1"/>
		<rect x="293.9" y="309" class="st3" width="69.2" height="24.1"/>
		<rect x="362.2" y="309" class="st3" width="69.2" height="24.1"/>
		<rect x="431.5" y="309" class="st3" width="69.2" height="24.1"/>
		<rect x="500.9" y="309" class="st3" width="69.2" height="24.1"/>
		<rect x="52.2" y="333.6" class="st3" width="69.2" height="24.1"/>
		<rect x="120.4" y="333.6" class="st3" width="69.2" height="24.1"/>
		<rect x="189.8" y="333.6" class="st3" width="69.2" height="24.1"/>
		<rect x="259.2" y="333.6" class="st3" width="69.2" height="24.1"/>
		<rect x="328.6" y="333.6" class="st3" width="69.2" height="24.1"/>
		<rect x="396.8" y="333.6" class="st3" width="69.2" height="24.1"/>
		<rect x="466.2" y="333.6" class="st3" width="69.2" height="24.1"/>
		<rect x="535.6" y="333.6" class="st3" width="69.2" height="24.1"/>
		<rect x="17.5" y="357.1" class="st3" width="69.2" height="24.1"/>
		<rect x="85.8" y="357.1" class="st3" width="69.2" height="24.1"/>
		<rect x="155.1" y="357.1" class="st3" width="69.2" height="24.1"/>
		<rect x="224.5" y="357.1" class="st3" width="69.2" height="24.1"/>
		<rect x="293.9" y="357.1" class="st3" width="69.2" height="24.1"/>
		<rect x="362.2" y="357.1" class="st3" width="69.2" height="24.1"/>
		<rect x="431.5" y="357.1" class="st3" width="69.2" height="24.1"/>
		<rect x="500.9" y="357.1" class="st3" width="69.2" height="24.1"/>
		<rect x="52.2" y="381.7" class="st3" width="69.2" height="24.1"/>
		<rect x="120.4" y="381.7" class="st3" width="69.2" height="24.1"/>
		<rect x="189.8" y="381.7" class="st3" width="69.2" height="24.1"/>
		<rect x="259.2" y="381.7" class="st3" width="69.2" height="24.1"/>
		<rect x="328.6" y="381.7" class="st3" width="69.2" height="24.1"/>
		<rect x="396.8" y="381.7" class="st3" width="69.2" height="24.1"/>
		<rect x="466.2" y="381.7" class="st3" width="69.2" height="24.1"/>
		<rect x="535.6" y="381.7" class="st3" width="69.2" height="24.1"/>
		<rect x="17.5" y="405.2" class="st3" width="69.2" height="24.1"/>
		<rect x="85.8" y="405.2" class="st3" width="69.2" height="24.1"/>
		<rect x="155.1" y="405.2" class="st3" width="69.2" height="24.1"/>
		<rect x="224.5" y="405.2" class="st3" width="69.2" height="24.1"/>
		<rect x="293.9" y="405.2" class="st3" width="69.2" height="24.1"/>
		<rect x="362.2" y="405.2" class="st3" width="69.2" height="24.1"/>
		<rect x="431.5" y="405.2" class="st3" width="69.2" height="24.1"/>
		<rect x="500.9" y="405.2" class="st3" width="69.2" height="24.1"/>
		<rect x="52.2" y="429.8" class="st3" width="69.2" height="24.1"/>
		<rect x="120.4" y="429.8" class="st3" width="69.2" height="24.1"/>
		<rect x="189.8" y="429.8" class="st3" width="69.2" height="24.1"/>
		<rect x="259.2" y="429.8" class="st3" width="69.2" height="24.1"/>
		<rect x="328.6" y="429.8" class="st3" width="69.2" height="24.1"/>
		<rect x="396.8" y="429.8" class="st3" width="69.2" height="24.1"/>
		<rect x="466.2" y="429.8" class="st3" width="69.2" height="24.1"/>
		<rect x="535.6" y="429.8" class="st3" width="69.2" height="24.1"/>
		<rect x="17.5" y="453.3" class="st3" width="69.2" height="24.1"/>
		<rect x="85.8" y="453.3" class="st3" width="69.2" height="24.1"/>
		<rect x="155.1" y="453.3" class="st3" width="69.2" height="24.1"/>
		<rect x="224.5" y="453.3" class="st3" width="69.2" height="24.1"/>
		<rect x="293.9" y="453.3" class="st3" width="69.2" height="24.1"/>
		<rect x="362.2" y="453.3" class="st3" width="69.2" height="24.1"/>
		<rect x="431.5" y="453.3" class="st3" width="69.2" height="24.1"/>
		<rect x="500.9" y="453.3" class="st3" width="69.2" height="24.1"/>
	</g>
	<g>
		<path class="st4" d="M266.5,343.1h-30.2V361h7.8l6.7,35.8h35.8l6.7-35.8h7.8v-17.9H271H266.5z"/>
	</g>
	<g class="st2">
		<rect x="52.2" y="94.1" class="st3" width="69.2" height="24.1"/>
		<rect x="120.4" y="94.1" class="st3" width="69.2" height="24.1"/>
		<rect x="189.8" y="94.1" class="st3" width="69.2" height="24.1"/>
		<rect x="259.2" y="94.1" class="st3" width="69.2" height="24.1"/>
		<rect x="328.6" y="94.1" class="st3" width="69.2" height="24.1"/>
		<rect x="396.8" y="94.1" class="st3" width="69.2" height="24.1"/>
		<rect x="466.2" y="94.1" class="st3" width="69.2" height="24.1"/>
		<rect x="535.6" y="94.1" class="st3" width="69.2" height="24.1"/>
		<rect x="17.5" y="117.6" class="st3" width="69.2" height="24.1"/>
		<rect x="85.8" y="117.6" class="st3" width="69.2" height="24.1"/>
		<rect x="155.1" y="117.6" class="st3" width="69.2" height="24.1"/>
		<rect x="224.5" y="117.6" class="st3" width="69.2" height="24.1"/>
		<rect x="293.9" y="117.6" class="st3" width="69.2" height="24.1"/>
		<rect x="362.2" y="117.6" class="st3" width="69.2" height="24.1"/>
		<rect x="431.5" y="117.6" class="st3" width="69.2" height="24.1"/>
		<rect x="500.9" y="117.6" class="st3" width="69.2" height="24.1"/>
		<rect x="52.2" y="142.2" class="st3" width="69.2" height="24.1"/>
		<rect x="120.4" y="142.2" class="st3" width="69.2" height="24.1"/>
		<rect x="189.8" y="142.2" class="st3" width="69.2" height="24.1"/>
		<rect x="259.2" y="142.2" class="st3" width="69.2" height="24.1"/>
		<rect x="328.6" y="142.2" class="st3" width="69.2" height="24.1"/>
		<rect x="396.8" y="142.2" class="st3" width="69.2" height="24.1"/>
		<rect x="466.2" y="142.2" class="st3" width="69.2" height="24.1"/>
		<rect x="535.6" y="142.2" class="st3" width="69.2" height="24.1"/>
		<rect x="17.5" y="165.7" class="st3" width="69.2" height="24.1"/>
		<rect x="85.8" y="165.7" class="st3" width="69.2" height="24.1"/>
		<rect x="155.1" y="165.7" class="st3" width="69.2" height="24.1"/>
		<rect x="224.5" y="165.7" class="st3" width="69.2" height="24.1"/>
		<rect x="293.9" y="165.7" class="st3" width="69.2" height="24.1"/>
		<rect x="362.2" y="165.7" class="st3" width="69.2" height="24.1"/>
		<rect x="431.5" y="165.7" class="st3" width="69.2" height="24.1"/>
		<rect x="500.9" y="165.7" class="st3" width="69.2" height="24.1"/>
		<rect x="52.2" y="190.4" class="st3" width="69.2" height="24.1"/>
		<rect x="120.4" y="190.4" class="st3" width="69.2" height="24.1"/>
		<rect x="189.8" y="190.4" class="st3" width="69.2" height="24.1"/>
		<rect x="259.2" y="190.4" class="st3" width="69.2" height="24.1"/>
		<rect x="328.6" y="190.4" class="st3" width="69.2" height="24.1"/>
		<rect x="396.8" y="190.4" class="st3" width="69.2" height="24.1"/>
		<rect x="466.2" y="190.4" class="st3" width="69.2" height="24.1"/>
		<rect x="535.6" y="190.4" class="st3" width="69.2" height="24.1"/>
		<rect x="17.5" y="213.9" class="st3" width="69.2" height="24.1"/>
		<rect x="85.8" y="213.9" class="st3" width="69.2" height="24.1"/>
		<rect x="155.1" y="213.9" class="st3" width="69.2" height="24.1"/>
		<rect x="224.5" y="213.9" class="st3" width="69.2" height="24.1"/>
		<rect x="293.9" y="213.9" class="st3" width="69.2" height="24.1"/>
		<rect x="362.2" y="213.9" class="st3" width="69.2" height="24.1"/>
		<rect x="431.5" y="213.9" class="st3" width="69.2" height="24.1"/>
		<rect x="500.9" y="213.9" class="st3" width="69.2" height="24.1"/>
		<rect x="52.2" y="238.5" class="st3" width="69.2" height="24.1"/>
		<rect x="120.4" y="238.5" class="st3" width="69.2" height="24.1"/>
		<rect x="189.8" y="238.5" class="st3" width="69.2" height="24.1"/>
		<rect x="259.2" y="238.5" class="st3" width="69.2" height="24.1"/>
		<rect x="328.6" y="238.5" class="st3" width="69.2" height="24.1"/>
		<rect x="396.8" y="238.5" class="st3" width="69.2" height="24.1"/>
		<rect x="466.2" y="238.5" class="st3" width="69.2" height="24.1"/>
		<rect x="535.6" y="238.5" class="st3" width="69.2" height="24.1"/>
		<rect x="17.5" y="262" class="st3" width="69.2" height="24.1"/>
		<rect x="85.8" y="262" class="st3" width="69.2" height="24.1"/>
		<rect x="155.1" y="262" class="st3" width="69.2" height="24.1"/>
		<rect x="224.5" y="262" class="st3" width="69.2" height="24.1"/>
		<rect x="293.9" y="262" class="st3" width="69.2" height="24.1"/>
		<rect x="362.2" y="262" class="st3" width="69.2" height="24.1"/>
		<rect x="431.5" y="262" class="st3" width="69.2" height="24.1"/>
		<rect x="500.9" y="262" class="st3" width="69.2" height="24.1"/>
	</g>
	<path class="st5" d="M595.1,183.7c-0.3-3.4-3.1-6.1-6.6-6.1H337.7c-3.5,0-6.3,2.7-6.6,6.1l-0.1,169.5c0,3.6,3,6.6,6.6,6.6h250.9
		c3.6,0,6.6-3,6.6-6.6L595.1,183.7z"/>
	<g class="st6">
		<path class="st7" d="M266.5,343.1h-30.2V361h7.8l6.7,35.8h35.8l6.7-35.8h7.8v-17.9H271H266.5z M282.9,392.3h-28.4l-5.9-31.3h40.1
			L282.9,392.3z M296.7,356.5h-3.4h-49.2h-3.4v-9h56V356.5z"/>
	</g>
	<g>
		<path class="st8" d="M269.8,345.3v-6.8c12.5-1.1,22.4-11.7,22.4-24.5v-2.2H290c-8.3,0-15.7,4.2-20.1,10.5v-23.9h-4.5v15
			c-4.5-6.3-11.8-10.5-20.1-10.5H243v2.2c0,12.8,9.9,23.4,22.4,24.5v15.8H269.8z M247.6,307.4c9.2,1.1,16.5,8.4,17.6,17.6
			C256,324,248.7,316.6,247.6,307.4z M287.6,316.4c-1.1,9.2-8.4,16.5-17.6,17.6C271.1,324.8,278.4,317.5,287.6,316.4z"/>
	</g>
	<circle class="st9" cx="292.5" cy="93.8" r="40"/>
	<g transform="translate(0,-952.36218)">
		<path class="st10" d="M291,1024.1c-0.8,0-1.5,0.7-1.5,1.5v22.1c0,0.4,0.2,0.8,0.5,1.1c4.8,4.8,9.7,9.7,14.5,14.5
			c0.6,0.6,1.5,0.6,2.1,0c0.6-0.6,0.6-1.5,0-2.1l-14.1-14.1v-21.5C292.5,1024.8,291.8,1024.1,291,1024.1z"/>
	</g>
	<path class="st11" d="M502.6,396.8"/>
	<rect x="408" y="387.3" class="st12" width="115.3" height="11.2"/>
	<rect x="420.3" y="349.3" class="st12" width="90.6" height="38"/>
	<rect x="420.9" y="361" class="st13" width="89.5" height="9"/>
	<path class="st12" d="M592.9,183.7c-0.3-3.4-3.1-6.1-6.6-6.1H335.5c-3.5,0-6.3,2.7-6.6,6.1l-0.1,169.5c0,3.6,3,6.6,6.6,6.6h250.9
		c3.6,0,6.6-3,6.6-6.6L592.9,183.7z"/>
	<rect x="340.1" y="192.6" class="st14" width="241.7" height="139.9"/>
	<g>
		<path class="st10" d="M266.5,343.1h-30.2V361h7.8l6.7,35.8h35.8l6.7-35.8h7.8v-17.9H271H266.5z M282.9,392.3h-28.4l-5.9-31.3h40.1
			L282.9,392.3z M296.7,356.5h-3.4h-49.2h-3.4v-9h56V356.5z"/>
	</g>
	<polygon class="st13" points="287.7,368.8 249.7,368.8 248.6,361 288.9,361 	"/>
	<g class="st15">
		<rect x="96.4" y="296.5" class="st16" width="12.3" height="104.8"/>
		<rect x="108.7" y="280.4" class="st10" width="12.3" height="120.9"/>
		<rect x="138.9" y="280.4" class="st10" width="12.3" height="120.9"/>
		<rect x="151.2" y="303.7" class="st16" width="22.4" height="97.6"/>
		<rect x="121" y="316.8" class="st17" width="17.9" height="84.5"/>
		<rect x="173.6" y="316.8" class="st17" width="17.9" height="84.5"/>
		<rect x="124.4" y="328.5" class="st18" width="11.2" height="8.7"/>
		<rect x="177" y="328.5" class="st19" width="11.2" height="8.7"/>
		<rect x="177" y="383.8" class="st19" width="11.2" height="8.7"/>
		<rect x="99.7" y="305.2" class="st19" width="5.6" height="88.8"/>
		<rect x="153.5" y="313.9" class="st19" width="16.8" height="8.7"/>
	</g>
	<rect x="108.1" y="239.6" class="st9" width="157.8" height="12.3"/>
	<rect x="65.6" y="398.5" class="st12" width="543.8" height="17.9"/>
	<rect x="138.9" y="154" class="st20" width="100.7" height="83.9"/>
	<rect x="149.5" y="163.5" class="st21" width="77.9" height="64.9"/>
	<g>
		<path class="st10" d="M150.1,212.8v15.1h77.2v-24.4l-4.4-3.5l-18.4-13.4l-20.2,19.1l-14.2-7.6l-15.5,11.7L150.1,212.8z M150.1,171
			"/>
		<ellipse class="st10" cx="166" cy="186.1" rx="5.5" ry="5.3"/>
	</g>
	<g class="st2">
		<rect x="51.1" y="477.9" class="st1" width="69.2" height="24.1"/>
		<rect x="120.4" y="477.9" class="st1" width="69.2" height="24.1"/>
		<rect x="189.8" y="477.9" class="st1" width="69.2" height="24.1"/>
		<rect x="259.2" y="477.9" class="st1" width="69.2" height="24.1"/>
	</g>
	<g>
		<path class="st4" d="M517.4,217.9H410.6c-3.5,0-6.5,2.9-6.5,6.5v77.2c0,3.5,2.9,6.5,6.5,6.5h106.8c3.5,0,6.5-2.9,6.5-6.5v-77.2
			C523.9,220.8,520.9,217.9,517.4,217.9z"/>
	</g>
	<g>
		<path class="st10" d="M517.3,217.9H409.5c-3.6,0-6.5,3-6.5,6.5v77.9c0,3.6,3,6.5,6.5,6.5h107.8c3.6,0,6.5-3,6.5-6.5v-77.9
			C523.9,220.8,520.9,217.9,517.3,217.9z M409.4,221.3h107.8c1.7,0,3.1,1.4,3.1,3.1v7H406.2v-7C406.3,222.7,407.7,221.3,409.4,221.3
			z M517.3,305.5H409.5c-1.7,0-3.1-1.4-3.1-3.1v-67.5h114.1v67.5C520.4,304.2,519,305.5,517.3,305.5z"/>
		<path class="st10" d="M441.6,228.1h43.6c1,0,1.7-0.7,1.7-1.7c0-1-0.7-1.7-1.7-1.7h-43.6c-1,0-1.7,0.7-1.7,1.7
			C439.9,227.4,440.7,228.1,441.6,228.1z"/>
		<circle class="st10" cx="411.3" cy="226.4" r="1.7"/>
		<circle class="st10" cx="417" cy="226.4" r="1.7"/>
		<circle class="st10" cx="422.8" cy="226.4" r="1.7"/>
	</g>
</g>
</svg>
